<svg xmlns="http://www.w3.org/2000/svg" width="762" height="689.787" viewBox="0 0 762 689.787">
  <g id="undraw_Analytics_re_dkf8_1_" data-name="undraw_Analytics_re_dkf8 (1)" transform="translate(0 0)">
    <path id="Path_68" data-name="Path 68" d="M727.535,347.654H472.7a16.519,16.519,0,0,1-16.5-16.5V131a12.1,12.1,0,0,1,12.088-12.088H731.738a12.311,12.311,0,0,1,12.3,12.3V331.154a16.519,16.519,0,0,1-16.5,16.5Z" transform="translate(-219 -105.106)" fill="#f2f2f2"/>
    <path id="Path_69" data-name="Path 69" d="M488.7,331.154H711.535a16,16,0,0,0,16-16V161.606a16,16,0,0,0-16-16H488.7a16,16,0,0,0-16,16V315.154A16,16,0,0,0,488.7,331.154Z" transform="translate(-219 -105.106)" fill="#fff"/>
    <path id="Path_70" data-name="Path 70" d="M743.8,130.057H455.965v-8.4a16.574,16.574,0,0,1,16.56-16.55h254.72a16.574,16.574,0,0,1,16.56,16.55Z" transform="translate(-219 -105.106)" fill="#ccc"/>
    <circle id="Ellipse_13" data-name="Ellipse 13" cx="4.283" cy="4.283" r="4.283" transform="translate(262.777 8.217)" fill="#fff"/>
    <circle id="Ellipse_14" data-name="Ellipse 14" cx="4.283" cy="4.283" r="4.283" transform="translate(279.036 8.217)" fill="#fff"/>
    <circle id="Ellipse_15" data-name="Ellipse 15" cx="4.283" cy="4.283" r="4.283" transform="translate(295.295 8.217)" fill="#fff"/>
    <path id="Path_71" data-name="Path 71" d="M505.1,217.562H494.059A2.26,2.26,0,0,1,491.8,215.3V204.269a2.26,2.26,0,0,1,2.257-2.257H505.1a2.26,2.26,0,0,1,2.257,2.257V215.3a2.26,2.26,0,0,1-2.257,2.257Z" transform="translate(-219 -105.106)" fill="#1f92c5"/>
    <path id="Path_72" data-name="Path 72" d="M505.1,246.156H494.059A2.26,2.26,0,0,1,491.8,243.9V232.863a2.26,2.26,0,0,1,2.257-2.257H505.1a2.26,2.26,0,0,1,2.257,2.257V243.9a2.26,2.26,0,0,1-2.257,2.257Z" transform="translate(-219 -105.106)" fill="#f29305"/>
    <path id="Path_73" data-name="Path 73" d="M505.1,274.749H494.059a2.26,2.26,0,0,1-2.257-2.257V261.456a2.26,2.26,0,0,1,2.257-2.257H505.1a2.26,2.26,0,0,1,2.257,2.257v11.036A2.26,2.26,0,0,1,505.1,274.749Z" transform="translate(-219 -105.106)" fill="#ccc"/>
    <path id="Path_74" data-name="Path 74" d="M577.331,212.044H524.157a2.257,2.257,0,1,1,0-4.515h53.174a2.257,2.257,0,1,1,0,4.515Z" transform="translate(-219 -105.106)" fill="#ccc"/>
    <path id="Path_75" data-name="Path 75" d="M577.331,240.638H524.157a2.257,2.257,0,1,1,0-4.515h53.174a2.257,2.257,0,1,1,0,4.515Z" transform="translate(-219 -105.106)" fill="#ccc"/>
    <path id="Path_76" data-name="Path 76" d="M577.331,269.231H524.157a2.257,2.257,0,1,1,0-4.515h53.174a2.257,2.257,0,1,1,0,4.515Z" transform="translate(-219 -105.106)" fill="#ccc"/>
    <path id="Path_77" data-name="Path 77" d="M708.341,239.1c.057-.949.089-1.9.089-2.868a47.318,47.318,0,0,0-47.318-47.318V239.1Z" transform="translate(-219 -105.106)" fill="#1f92c5"/>
    <path id="Path_78" data-name="Path 78" d="M657.528,243.4V193.213A47.318,47.318,0,1,0,704.757,243.4Z" transform="translate(-219 -105.106)" fill="#f29305"/>
    <path id="Path_79" data-name="Path 79" d="M980,794.894H220a1,1,0,0,1,0-2H980a1,1,0,0,1,0,2Z" transform="translate(-219 -105.106)" fill="#ccc"/>
    <path id="Path_80" data-name="Path 80" d="M723.69,518.032a10.7,10.7,0,0,1,.89,1.431l50.113,5.635,7.288-9.847,16.3,9.057-14.347,23.92-61.4-16.113a10.673,10.673,0,1,1,1.153-14.083Z" transform="translate(-219 -105.106)" fill="#ffb8b8"/>
    <path id="Path_81" data-name="Path 81" d="M467.987,505.094a10.056,10.056,0,0,1-14.525-5.175l-35.727.745,9.9-15.712,32.41,1.7a10.11,10.11,0,0,1,7.945,18.441Z" transform="translate(-219 -105.106)" fill="#ffb8b8"/>
    <path id="Path_82" data-name="Path 82" d="M452.285,500.6a4.509,4.509,0,0,1-4.428,3.213l-65.387-1.661-59.207-17.53a12.818,12.818,0,1,1,7.633-24.474l53.49,17.54,64.2,6.2a4.524,4.524,0,0,1,4.067,4.556l-.186,10.951a4.522,4.522,0,0,1-.184,1.209Z" transform="translate(-219 -105.106)" fill="#3f3d56"/>
    <path id="Path_83" data-name="Path 83" d="M138.461,676.6H150.72l5.833-47.288H138.459Z" fill="#ffb8b8"/>
    <path id="Path_84" data-name="Path 84" d="M354.333,777.7h24.145a15.386,15.386,0,0,1,15.386,15.387v.5h-39.53Z" transform="translate(-219 -105.106)" fill="#2f2e41"/>
    <path id="Path_85" data-name="Path 85" d="M102.461,676.6H114.72l5.833-47.288H102.459Z" fill="#ffb8b8"/>
    <path id="Path_86" data-name="Path 86" d="M318.333,777.7h24.145a15.386,15.386,0,0,1,15.387,15.387v.5h-39.53Z" transform="translate(-219 -105.106)" fill="#2f2e41"/>
    <path id="Path_87" data-name="Path 87" d="M313.233,590.6l2.927,173.694a4,4,0,0,0,4.362,3.916l14.346-1.3a4,4,0,0,0,3.626-3.674l8.4-108.345a1,1,0,0,1,2,.039l4.2,110.826a4,4,0,0,0,4,3.849H372.47a4,4,0,0,0,3.993-3.756L387.233,589.6l-64-16Z" transform="translate(-219 -105.106)" fill="#2f2e41"/>
    <circle id="Ellipse_16" data-name="Ellipse 16" cx="24.561" cy="24.561" r="24.561" transform="translate(116.093 273.274)" fill="#ffb8b8"/>
    <path id="Path_88" data-name="Path 88" d="M386.292,597.039h-.072l-57.431-.884a4.5,4.5,0,0,1-4.408-4.052l-.65-6.5a.5.5,0,0,0-1,0l-.672,6.717a4.494,4.494,0,0,1-4.133,4.038l-4.059.312a4.5,4.5,0,0,1-4.7-5.628l3.495-13.324a181.54,181.54,0,0,0,1.7-84.66l-1.737-7.9a28.528,28.528,0,0,1,13.47-30.816l11.28-6.612,5.118-7.677a11.085,11.085,0,0,1,8.978-4.923c7.139-.156,19.386,1.151,21.687,11.591a28.5,28.5,0,0,1,19.282,27.441L390.789,592.6a4.5,4.5,0,0,1-4.5,4.438Z" transform="translate(-219 -105.106)" fill="#3f3d56"/>
    <path id="Path_89" data-name="Path 89" d="M357.733,417.1c-.1,3.472-2.511,5.481-5.471,7.3s-6.419,2.607-9.808,3.368a3,3,0,0,1-4.405-2.625l-3.108-11.823a74.837,74.837,0,0,1-2.393-11.537c-.749-7.509,1.031-15.587,6.272-21.016s14.331-7.358,20.612-3.175c7.454-9.52,41.523,11.513,33.119,18.133-1.5,1.178-3.781-.312-5.678-.457s-4.025.189-5.23,1.662c-1.575,1.924-.889,4.791-1.538,7.191a6.714,6.714,0,0,1-8.484,4.348,23.091,23.091,0,0,1-4.4-2.829c-1.456-.97-3.3-1.686-4.934-1.074-2.16.806-2.927,3.45-3.122,5.748a53.242,53.242,0,0,1-1.432,6.787Z" transform="translate(-219 -105.106)" fill="#2f2e41"/>
    <path id="Path_90" data-name="Path 90" d="M144.469,377.819l4,49,21,51-31-50Z" opacity="0.2"/>
    <path id="Path_91" data-name="Path 91" d="M621.819,751.253,402.649,621.226a16.519,16.519,0,0,1-5.772-22.609L499,426.477a12.1,12.1,0,0,1,16.564-4.229L742.145,556.671a12.311,12.311,0,0,1,4.3,16.851L644.429,745.481A16.519,16.519,0,0,1,621.819,751.253Z" transform="translate(-219 -105.106)" fill="#f2f2f2"/>
    <path id="Path_92" data-name="Path 92" d="M424.828,615.2,616.477,728.9a16,16,0,0,0,21.924-5.6l78.345-132.057a16,16,0,0,0-5.6-21.924L519.5,455.621a16,16,0,0,0-21.924,5.6L419.231,593.275A16,16,0,0,0,424.828,615.2Z" transform="translate(-219 -105.106)" fill="#fff"/>
    <path id="Path_93" data-name="Path 93" d="M746.837,572.412,499.284,425.547l4.286-7.225a16.574,16.574,0,0,1,22.686-5.784L745.326,542.505a16.574,16.574,0,0,1,5.8,22.683Z" transform="translate(-219 -105.106)" fill="#ccc"/>
    <circle id="Ellipse_17" data-name="Ellipse 17" cx="4.283" cy="4.283" r="4.283" transform="translate(308.237 320.806)" fill="#fff"/>
    <circle id="Ellipse_18" data-name="Ellipse 18" cx="4.283" cy="4.283" r="4.283" transform="translate(322.22 329.101)" fill="#fff"/>
    <circle id="Ellipse_19" data-name="Ellipse 19" cx="4.283" cy="4.283" r="4.283" transform="translate(336.203 337.397)" fill="#fff"/>
    <rect id="Rectangle_18" data-name="Rectangle 18" width="0.546" height="3.276" transform="matrix(0.51, -0.86, 0.86, 0.51, 472.478, 492.843)" fill="#e6e6e6"/>
    <path id="Path_94" data-name="Path 94" d="M685.786,594.575l-5.692-3.377.279-.47,5.692,3.377ZM674.4,587.821l-5.692-3.377.279-.47,5.692,3.377Zm-11.384-6.754-5.692-3.377.279-.47L663.3,580.6Zm-11.384-6.754-5.692-3.377.279-.47,5.692,3.377Zm-11.384-6.754-5.692-3.377.279-.47,5.692,3.377ZM628.864,560.8l-5.692-3.377.279-.47,5.692,3.377Zm-11.384-6.754-5.692-3.377.279-.47,5.692,3.377ZM606.1,547.3,600.4,543.92l.279-.47,5.692,3.377Zm-11.384-6.754-5.692-3.377.279-.47,5.692,3.377Zm-11.384-6.754-5.692-3.377.279-.47,5.692,3.377Zm-11.384-6.754-5.692-3.377.279-.47,5.692,3.377Zm-11.384-6.754-5.692-3.377.279-.47,5.692,3.377Zm-11.384-6.754-5.692-3.377.279-.47,5.692,3.377Zm-11.384-6.754L532.1,503.4l.279-.47,5.692,3.377ZM526.4,500.019l-5.692-3.377.279-.47,5.692,3.377Zm-11.384-6.754-5.692-3.377.279-.47L515.3,492.8Z" transform="translate(-219 -105.106)" fill="#e6e6e6"/>
    <rect id="Rectangle_19" data-name="Rectangle 19" width="0.546" height="3.276" transform="matrix(0.51, -0.86, 0.86, 0.51, 281.819, 379.731)" fill="#e6e6e6"/>
    <rect id="Rectangle_20" data-name="Rectangle 20" width="0.546" height="3.276" transform="matrix(0.51, -0.86, 0.86, 0.51, 354.056, 481.631)" fill="#e6e6e6"/>
    <path id="Path_95" data-name="Path 95" d="M567.448,583.414l-5.608-3.327.279-.47,5.608,3.327Zm-11.215-6.654-5.608-3.327.279-.47,5.608,3.327Zm-11.216-6.653-5.608-3.327.279-.47,5.608,3.327ZM533.8,563.453l-5.608-3.327.279-.47,5.608,3.327ZM522.586,556.8l-5.608-3.327.279-.47,5.608,3.327Zm-11.215-6.654-5.608-3.327.279-.47,5.608,3.327Zm-11.215-6.654-5.608-3.327.279-.47,5.608,3.327Zm-11.215-6.654-5.608-3.327.279-.47,5.608,3.327Z" transform="translate(-219 -105.106)" fill="#e6e6e6"/>
    <rect id="Rectangle_21" data-name="Rectangle 21" width="0.546" height="3.276" transform="matrix(0.51, -0.86, 0.86, 0.51, 255.908, 423.404)" fill="#e6e6e6"/>
    <rect id="Rectangle_22" data-name="Rectangle 22" width="0.546" height="3.276" transform="matrix(0.51, -0.86, 0.86, 0.51, 286.854, 469.698)" fill="#e6e6e6"/>
    <path id="Path_96" data-name="Path 96" d="M500.083,571.384l-5.769-3.423.279-.47,5.769,3.423Zm-11.539-6.846-5.769-3.422.279-.47,5.769,3.423Zm-11.539-6.846-5.769-3.423.279-.47,5.769,3.423Z" transform="translate(-219 -105.106)" fill="#e6e6e6"/>
    <rect id="Rectangle_23" data-name="Rectangle 23" width="0.546" height="3.276" transform="matrix(0.51, -0.86, 0.86, 0.51, 243.65, 444.067)" fill="#e6e6e6"/>
    <rect id="Rectangle_24" data-name="Rectangle 24" width="0.546" height="3.276" transform="matrix(0.51, -0.86, 0.86, 0.51, 265.934, 504.96)" fill="#e6e6e6"/>
    <path id="Path_97" data-name="Path 97" d="M479.164,606.646l-5.769-3.423.279-.47,5.769,3.423ZM467.625,599.8l-5.769-3.423.279-.47,5.769,3.423Zm-11.539-6.846-5.769-3.423.279-.47,5.769,3.423Z" transform="translate(-219 -105.106)" fill="#e6e6e6"/>
    <rect id="Rectangle_25" data-name="Rectangle 25" width="0.546" height="3.276" transform="matrix(0.51, -0.86, 0.86, 0.51, 222.73, 479.328)" fill="#e6e6e6"/>
    <path id="Path_98" data-name="Path 98" d="M457.4,594.222l162.41,96.352a17.266,17.266,0,0,0,23.632-6.033L690.9,604.555l-.327-.181L582.905,631.856l-8.529-33.394a4.123,4.123,0,0,0-2.387-2.787,4.394,4.394,0,0,0-2.818-.158l-56.421,14.4L506.513,585.5a4.14,4.14,0,0,0-5.036-2.988C501.1,582.615,464.381,592.343,457.4,594.222Z" transform="translate(-219 -105.106)" fill="#f29305"/>
    <path id="Path_99" data-name="Path 99" d="M456.431,594.281l-.135-.529,45.149-11.526a4.646,4.646,0,0,1,5.645,3.349l6.11,23.935,56.108-14.323a4.646,4.646,0,0,1,5.645,3.349l8.4,32.914,108.226-27.628.135.529L582.962,632.113l-8.537-33.443a4.1,4.1,0,0,0-4.981-2.955l-56.637,14.458-6.245-24.464a4.1,4.1,0,0,0-4.981-2.955Z" transform="translate(-219 -105.106)" fill="#3f3d56"/>
    <circle id="Ellipse_20" data-name="Ellipse 20" cx="3.822" cy="3.822" r="3.822" transform="translate(285.988 467.316)" fill="#3f3d56"/>
    <circle id="Ellipse_21" data-name="Ellipse 21" cx="3.822" cy="3.822" r="3.822" transform="translate(353.19 479.25)" fill="#3f3d56"/>
    <circle id="Ellipse_22" data-name="Ellipse 22" cx="3.822" cy="3.822" r="3.822" transform="translate(470.27 488.454)" fill="#3f3d56"/>
    <path id="Path_100" data-name="Path 100" d="M393.379,601.917a10.056,10.056,0,0,1-.318-15.416l-13.379-33.136,18.2,3.676,9.914,30.9a10.11,10.11,0,0,1-14.42,13.973Z" transform="translate(-219 -105.106)" fill="#ffb8b8"/>
    <path id="Path_101" data-name="Path 101" d="M393.158,587.561a4.509,4.509,0,0,1-4.576-3l-21.658-61.719L362.3,461.27a12.818,12.818,0,1,1,25.589-1.551l2.59,56.233,17,62.219a4.524,4.524,0,0,1-2.815,5.42l-10.3,3.713a4.525,4.525,0,0,1-1.2.258Z" transform="translate(-219 -105.106)" fill="#3f3d56"/>
    <path id="Path_102" data-name="Path 102" d="M794.719,532.875a4.588,4.588,0,0,1-1.116-.7l-20.141-16.967a4.575,4.575,0,0,1-.294-6.728l18.277-18.352a4.552,4.552,0,0,1,5.931-.472L811.2,499.7a4.578,4.578,0,0,1,1.448,5.658l-11.957,25.281a4.58,4.58,0,0,1-5.969,2.24Z" transform="translate(-219 -105.106)" fill="#00b0ff"/>
    <path id="Path_103" data-name="Path 103" d="M654.276,667.73,642.247,671,623.9,626.162l17.754-4.83Z" fill="#ffb8b8"/>
    <path id="Path_104" data-name="Path 104" d="M853.3,773.576h24.293v15.138h-39.18v-.251A14.887,14.887,0,0,1,853.3,773.576Z" transform="translate(-393.982 147.552) rotate(-15.221)" fill="#2f2e41"/>
    <path id="Path_105" data-name="Path 105" d="M551.441,676.909H538.975l-5.931-48.085h18.4Z" fill="#ffb8b8"/>
    <path id="Path_106" data-name="Path 106" d="M529.819,673.346h24.293v15.138H514.933v-.251A14.887,14.887,0,0,1,529.819,673.346Z" fill="#2f2e41"/>
    <circle id="Ellipse_23" data-name="Ellipse 23" cx="24.975" cy="24.975" r="24.975" transform="translate(545.246 309.478)" fill="#ffb8b8"/>
    <path id="Path_107" data-name="Path 107" d="M769.678,747.731H752.642a4.589,4.589,0,0,1-4.571-4.294c-5.076-80.7-2.107-138.586,9.345-182.173a4.756,4.756,0,0,1,.185-.561l.912-2.281a4.554,4.554,0,0,1,4.249-2.877h35.033a4.568,4.568,0,0,1,3.474,1.6l4.758,5.552c.093.108.18.218.263.335,21.457,29.922,40.686,88.42,62.956,167.047a4.561,4.561,0,0,1-3.008,5.61l-18.308,5.859a4.6,4.6,0,0,1-5.516-2.371l-47.51-98.54a3.559,3.559,0,0,0-6.732,1.064l-13.96,102.078A4.593,4.593,0,0,1,769.678,747.731Z" transform="translate(-219 -105.106)" fill="#2f2e41"/>
    <path id="Path_108" data-name="Path 108" d="M804.107,563.1l-.144,0-42.554-1.344a4.561,4.561,0,0,1-4.4-4.021c-5.394-43.665,9.4-55.363,16.011-58.365a3.518,3.518,0,0,0,2.046-2.789l.572-4.577a4.559,4.559,0,0,1,.9-2.222c10.365-13.428,24.519-17.727,32.034-19.095a4.569,4.569,0,0,1,5.34,3.915l.857,6.572a3.62,3.62,0,0,0,.725,1.72c21.617,28.26-2.465,69.987-7.513,78.064h0a4.584,4.584,0,0,1-3.877,2.144Z" transform="translate(-219 -105.106)" fill="#1f92c5"/>
    <path id="Path_109" data-name="Path 109" d="M816.7,424.027a103.56,103.56,0,0,1-4.093-17.253c-.273-3.41.6-7.079,3.084-9.432,4.648-4.4,12.544-2.306,17.4,1.861,7.024,6.023,10.528,15.278,11.851,24.435s.741,18.47,1.06,27.717,1.641,18.755,6.356,26.717,13.463,14.073,22.69,13.4a15.969,15.969,0,0,0,10-4.236,11.591,11.591,0,0,0,3.481-10.065c4.716,8.445,2.325,19.892-4.709,26.531s-17.856,8.516-27.1,5.681-16.86-9.942-21.407-18.48-6.213-18.4-5.971-28.071c.185-7.426,1.448-14.913.193-22.234s-5.837-14.755-13.062-16.479Z" transform="translate(-219 -105.106)" fill="#2f2e41"/>
    <path id="Path_110" data-name="Path 110" d="M784.253,433.652c-1.232,4.115-5.944,6.653-10.183,5.957a11.941,11.941,0,0,1-9.012-8.285,17.055,17.055,0,0,1,1.333-12.5,19.471,19.471,0,0,1,11.141-9.923,15.987,15.987,0,0,1,14.537,2.323,5.346,5.346,0,0,1,3.736-3.907,10.216,10.216,0,0,1,5.606.083,23.1,23.1,0,0,1,12.857,9.353,37.59,37.59,0,0,1,5.826,15.021c1.434,8.052.905,16.85-3.617,23.665s-13.774,10.839-21.28,7.59c-.468-2.393.641-4.8,1.923-6.875s2.8-4.093,3.3-6.481-.452-5.308-2.761-6.089c-1.97-.666-4.071.413-6.147.543a6.735,6.735,0,0,1-6.461-9.705Z" transform="translate(-219 -105.106)" fill="#2f2e41"/>
    <path id="Path_111" data-name="Path 111" d="M720.956,536.54a10.711,10.711,0,0,1,1.144,1.238l50.277-3.913,5.3-11.045,17.714,5.822-9.581,26.2-63.332-4.25a10.673,10.673,0,1,1-1.523-14.048Z" transform="translate(-219 -105.106)" fill="#ffb8b8"/>
    <path id="Path_112" data-name="Path 112" d="M795.119,546.09a4.588,4.588,0,0,1-1.2-.538l-22.265-14.063a4.575,4.575,0,0,1-1.208-6.626l15.605-20.672a4.552,4.552,0,0,1,5.811-1.276l15.06,8.059a4.578,4.578,0,0,1,2.206,5.408l-8.4,26.675a4.58,4.58,0,0,1-5.608,3.032Z" transform="translate(-219 -105.106)" fill="#1f92c5"/>
  </g>
</svg>
