<svg xmlns="http://www.w3.org/2000/svg" xmlns:xlink="http://www.w3.org/1999/xlink" width="1920" height="1080" viewBox="0 0 1920 1080">
  <defs>
    <clipPath id="clip-path">
      <rect id="Rectangle_2" data-name="Rectangle 2" width="1920" height="1080"/>
    </clipPath>
    <linearGradient id="linear-gradient" x1="0.5" x2="0.5" y2="1" gradientUnits="objectBoundingBox">
      <stop offset="0" stop-color="#040fd9"/>
      <stop offset="1" stop-color="#1f92c5"/>
    </linearGradient>
  </defs>
  <g id="contactbg" transform="translate(2556 510)">
    <g id="Web_1920_1" data-name="Web 1920 – 1" transform="translate(-2556 -510)" clip-path="url(#clip-path)">
      <rect id="Rectangle_1" data-name="Rectangle 1" width="1920" height="1080" fill="#fff"/>
      <path id="Path_1" data-name="Path 1" d="M1956.41,110.69S1783.29,97.547,1561.2,153.547s-313.175,181.681-524.038,165-264.826-38.553-521.854-60-515.3,75-515.3,75V1047.47h1956.4Z" transform="translate(-18.406 32.565)" fill="url(#linear-gradient)"/>
      <g id="Group_2" data-name="Group 2" transform="translate(-44.406 38.913)">
        <path id="Path_33" data-name="Path 33" d="M46,0A46,46,0,1,1,0,46,46,46,0,0,1,46,0Z" transform="translate(1496.183 820.937)" fill="#e2edfb"/>
        <path id="Path_2" data-name="Path 2" d="M805.671,742.956c22.28-7.717,45.967-15.764,63.637-34.109,15.79-16.393,26.45-41.426,19.908-66.011-6.528-24.534-26.081-40.894-46.269-49.031-11.45-4.615-23.429-7.175-35.4-9.186-13.017-2.186-26.091-3.978-39.159-5.7a1565.015,1565.015,0,0,0-159.341-12.792c-26.306-.764-52.608-.746-78.918-.305-23.5.393-48.243.384-70.041-11.134-16.951-8.956-32.335-25.25-37.058-46.662-5.452-24.717,4.6-49.888,19.03-67.789,7.6-9.436,16.491-17.377,25.658-24.68,9.946-7.922,20.238-15.283,30.753-22.154A404.142,404.142,0,0,1,563.2,358.987c11.035-4.627,22.234-8.62,33.529-12.3,9.538-3.11,19.106-6.224,28.325-10.462,17.821-8.191,34.771-22.066,39.3-44.813,4.294-21.559-2.946-44.962-15.64-60.978-14.686-18.529-36.83-26.651-58.059-27.965-23.833-1.475-47.118,5.4-69.519,14.134-23.893,9.312-47.27,20.019-71.668,27.561a425.232,425.232,0,0,1-73.76,15.812c-12.192,1.5-24.753,3.188-37.018,2.042-10.279-.961-20.505-4.447-28.081-12.86a34.831,34.831,0,0,1-9.035-27.59c.242-1.9,2.745-1.092,2.5.8-1.619,12.736,5.887,24.471,15.137,30.483,10.691,6.948,23.7,6.957,35.6,6.163a408.074,408.074,0,0,0,76.634-12.776c24.755-6.521,48.625-15.842,72.469-25.8,22.645-9.457,45.8-18.687,69.99-20.736,20.992-1.777,43.074,1.75,61.361,14.4,16.072,11.119,27.891,29.662,31.657,50.94,3.68,20.793-1.417,41.721-15.065,56.231-14.131,15.023-33.506,21.446-51.563,27.362-22.9,7.5-45.312,16.273-67,27.661a409.023,409.023,0,0,0-63.029,40.866c-19.26,15.179-38.268,34.278-44.36,61.358-2.838,12.614-2.314,25.992,2.434,37.907A67.778,67.778,0,0,0,447.62,542.8c19.325,16.4,43.681,19.766,67.023,20.1,26.217.376,52.435-.644,78.66-.148a1565.533,1565.533,0,0,1,160.012,11.255q20.006,2.442,39.962,5.4c11.966,1.773,23.973,3.535,35.738,6.684,20.919,5.6,41.275,16.367,54.277,36.822a66.886,66.886,0,0,1,10.344,30.4,69.579,69.579,0,0,1-6.043,33.27c-9.984,22.656-28.686,37.067-48.547,46.534-10.638,5.071-21.672,8.912-32.684,12.727-1.6.556-2.29-2.334-.69-2.888Z" transform="translate(1035.603 167.401)" fill="#f2f2f2"/>
        <circle id="Ellipse_2" data-name="Ellipse 2" cx="24" cy="24" r="24" transform="translate(1203.014 365.27)" fill="#00b0ff"/>
        <circle id="Ellipse_3" data-name="Ellipse 3" cx="24" cy="24" r="24" transform="translate(1375.041 410.631)" fill="#f2f2f2"/>
        <circle id="Ellipse_4" data-name="Ellipse 4" cx="24" cy="24" r="24" transform="translate(1519.981 319.77)" fill="#1f92c5"/>
        <circle id="Ellipse_5" data-name="Ellipse 5" cx="24" cy="24" r="24" transform="translate(1616.279 421.615)" fill="#f2f2f2"/>
        <circle id="Ellipse_6" data-name="Ellipse 6" cx="24" cy="24" r="24" transform="translate(1488.115 539.435)" fill="#f29305"/>
        <circle id="Ellipse_7" data-name="Ellipse 7" cx="24" cy="24" r="24" transform="translate(1332.896 596.348)" fill="#f2f2f2"/>
        <circle id="Ellipse_8" data-name="Ellipse 8" cx="24" cy="24" r="24" transform="translate(1497.366 685.213)" fill="#f2f2f2"/>
        <circle id="Ellipse_9" data-name="Ellipse 9" cx="24" cy="24" r="24" transform="translate(1678.802 735.136)" fill="#f2f2f2"/>
        <circle id="Ellipse_10" data-name="Ellipse 10" cx="24" cy="24" r="24" transform="translate(1881.801 724.153)" fill="#f29305"/>
        <path id="Path_3" data-name="Path 3" d="M606.082,220.373c-72.958.508-132.7,58.93-133.731,130.816-.01.664-.014,5.33-.013,11.434,0,18.634,15.33,33.743,34.242,33.746h0c18.927,0,34.274-15.132,34.262-33.79,0-4.16-.006-7.033-.006-7.21,0-30.7,22.108-57.073,52.694-62.864s61.026,10.618,72.575,39.12a63.5,63.5,0,0,1-25.288,77.624l.012.014s-48.74,30.92-63.6,73.335h.013a92.73,92.73,0,0,0-3.931,26.768c0,3.725.222,36.321.652,62.778.313,18.993,16.029,34.227,35.306,34.222h0A35.576,35.576,0,0,0,634.315,596.1a34.536,34.536,0,0,0,10.266-24.744c-.149-24.229-.23-52.442-.23-54.489,0-26.045,25.5-51.995,46.442-68.917,24.118-19.487,41.474-46.043,48.445-76a85.563,85.563,0,0,0,2.536-18.833,131.782,131.782,0,0,0-39.8-94.206,135.759,135.759,0,0,0-95.892-38.538Z" transform="translate(936.448 165.401)" fill="#e2edfb"/>
        <path id="Path_4" data-name="Path 4" d="M1027.85,747.631H178.862a1.191,1.191,0,1,1,0-2.381h848.989a1.191,1.191,0,1,1,0,2.381Z" transform="translate(937.032 166.567)" fill="#3f3d56"/>
        <circle id="Ellipse_11" data-name="Ellipse 11" cx="30" cy="30" r="30" transform="translate(1718.264 532.434)" fill="#2f2e41"/>
        <path id="Path_5" data-name="Path 5" d="M573.012,582.129H560.753l-5.833-47.288h18.1Z" transform="translate(1119.202 318.937)" fill="#a0616a"/>
        <path id="Path_6" data-name="Path 6" d="M552,578.626h23.64v14.887H537.109A14.887,14.887,0,0,1,552,578.626Z" transform="translate(1119.167 318.937)" fill="#2f2e41"/>
        <path id="Path_7" data-name="Path 7" d="M668.012,582.129H655.753l-5.833-47.288h18.1Z" transform="translate(1119.973 318.937)" fill="#a0616a"/>
        <path id="Path_8" data-name="Path 8" d="M647,578.626h23.64v14.887H632.109A14.887,14.887,0,0,1,647,578.626Z" transform="translate(1119.959 318.937)" fill="#2f2e41"/>
        <path id="Path_9" data-name="Path 9" d="M816.191,504.775l10.99-25.25a31.383,31.383,0,0,0-6.95-35.6,31.875,31.875,0,0,0-3.07-2.67,30.935,30.935,0,0,0-18.99-6.57,32.179,32.179,0,0,0-13.4,2.98c-.36.16-.71.33-1.07.5-.69.33-1.37.69-2.03,1.06a31.678,31.678,0,0,0-15.7,23.88l-4.85,40.64c-1.22,3.19-44.74,118.39-29.519,206.34a4.467,4.467,0,0,0,3.82,3.67l15.43,2.1a4.5,4.5,0,0,0,5.01-3.53l25.89-123.41a3.5,3.5,0,0,1,6.8-.23l36.58,129.78a4.471,4.471,0,0,0,4.31,3.28,5.135,5.135,0,0,0,.87-.08l18.85-3.63a4.471,4.471,0,0,0,3.63-4.81C850.021,682.335,835.3,527.6,816.191,504.775Z" transform="translate(942.166 166.567)" fill="#2f2e41"/>
        <circle id="Ellipse_12" data-name="Ellipse 12" cx="24.561" cy="24.561" r="24.561" transform="translate(1719.081 543.477)" fill="#a0616a"/>
        <path id="Path_11" data-name="Path 11" d="M800.19,538a10.056,10.056,0,0,0,8.427-12.913L837.5,504.044l-17.39-6.512-24.764,20.977A10.11,10.11,0,0,0,800.19,538Z" transform="translate(942.187 166.882)" fill="#a0616a"/>
        <path id="Path_13" data-name="Path 13" d="M823.252,522.883h-.106a4.508,4.508,0,0,1-3.311-1.57L807.669,507.12a4.5,4.5,0,0,1,.92-6.673l22.782-15.188-20.638-24.812a9.721,9.721,0,0,1,14.887-12.183l25.08,24.512a16.525,16.525,0,0,1-3.675,26.94l-20.5,21.754a4.508,4.508,0,0,1-3.275,1.413Z" transform="translate(942.342 166.929)" fill="#2f2e41"/>
        <path id="Path_14" data-name="Path 14" d="M795.307,470.584a4.615,4.615,0,0,1-.582-.037,4.461,4.461,0,0,1-3.712-3.069l-9.142-28.029a3.083,3.083,0,0,1,1.594-3.725l.3-.14c.269-.128.535-.254.807-.375a32.574,32.574,0,0,1,13.6-3.023,31.327,31.327,0,0,1,17.161,5.157,3.13,3.13,0,0,1,.9,4.294L799.084,468.5a4.455,4.455,0,0,1-3.777,2.08Z" transform="translate(942.041 166.982)" fill="#e6e6e6"/>
        <circle id="Ellipse_13" data-name="Ellipse 13" cx="9.817" cy="9.817" r="9.817" transform="translate(1762.205 529.435)" fill="#2f2e41"/>
        <path id="Path_15" data-name="Path 15" d="M796.111,361.365h0a26,26,0,0,0-26,26v11H783.64l6.471-11,1.941,11h41.059l-11-11A26,26,0,0,0,796.111,361.365Z" transform="translate(942.121 167.089)" fill="#2f2e41"/>
        <path id="Path_16" data-name="Path 16" d="M834.809,365.431a15.15,15.15,0,0,1,16.481-10.4c6.256,1.046,11.2,6.075,14.149,11.691s4.308,11.9,6.289,17.928,4.791,12.084,9.793,15.984,12.677,4.958,17.59.946a20.118,20.118,0,0,1-37.477,7.181c-2.592-4.612-3.261-10.017-4.03-15.251s-1.767-10.65-4.862-14.94-8.888-7.093-13.8-5.139Z" transform="translate(926.104 167.083)" fill="#2f2e41"/>
        <path id="Path_17" data-name="Path 17" d="M515.609,380.408h0a33.746,33.746,0,0,1-33.744-33.739c0-6.111,0-10.777.013-11.441a131.507,131.507,0,0,1,15.359-59.909,131.8,131.8,0,0,0-25.359,75.909c-.009.664-.014,5.33-.013,11.434a33.747,33.747,0,0,0,33.74,33.746h0A33.771,33.771,0,0,0,538.1,371.825a33.623,33.623,0,0,1-22.486,8.583Z" transform="translate(930.026 167.185)" fill="#3f3d56"/>
        <path id="Path_18" data-name="Path 18" d="M606.415,291.478a64,64,0,0,1,55.659,89.413,64,64,0,1,0-107.426-66.985A63.871,63.871,0,0,1,606.415,291.478Z" transform="translate(933.522 167.191)" fill="#3f3d56"/>
        <path id="Path_20" data-name="Path 20" d="M126.541,582.585H138.8l5.833-47.288H126.538Z" transform="translate(1101.233 318.937)" fill="#ffb8b8"/>
        <path id="Path_21" data-name="Path 21" d="M0,0H38.531V14.887H14.887A14.887,14.887,0,0,1,0,0Z" transform="translate(1262.301 911.905) rotate(179.997)" fill="#2f2e41"/>
        <path id="Path_19" data-name="Path 19" d="M616.8,590.408h0a34.79,34.79,0,0,1-34.79-34.235c-.423-26.444-.642-59.04-.642-62.765a94,94,0,0,1,3.874-26.768h-.012a95.053,95.053,0,0,1,5.494-12.7,110.053,110.053,0,0,0-15.494,28.7h.012a94,94,0,0,0-3.874,26.768c0,3.725.219,36.321.643,62.778a34.787,34.787,0,0,0,34.79,34.222h0a34.8,34.8,0,0,0,33.4-25.039A34.66,34.66,0,0,1,616.8,590.408Z" transform="translate(932.897 166.833)" fill="#3f3d56"/>
        <path id="Path_22" data-name="Path 22" d="M82.541,582.585H94.8l5.833-47.288h-18.1Z" transform="translate(1100.395 318.937)" fill="#ffb8b8"/>
        <path id="Path_23" data-name="Path 23" d="M0,0H38.531V14.887H14.887A14.887,14.887,0,0,1,0,0Z" transform="translate(1219.025 912.905) rotate(179.997)" fill="#2f2e41"/>
        <circle id="Ellipse_14" data-name="Ellipse 14" cx="24.561" cy="24.561" r="24.561" transform="translate(1205.36 553.624)" fill="#ffb8b8"/>
        <path id="Path_24" data-name="Path 24" d="M270.917,720.411l-11.975-.63a4.674,4.674,0,0,1-4.419-4.967l14.313-158.466,65.911,17.786,6.35-1.732L321.239,712.686a4.7,4.7,0,0,1-4.358,3.945l-12.909.6a4.674,4.674,0,0,1-4.931-4.8l2.339-84.2a1.558,1.558,0,0,0-3.083-.36L275.74,716.683a4.646,4.646,0,0,1-4.569,3.725A1.432,1.432,0,0,1,270.917,720.411Z" transform="translate(923.442 166.567)" fill="#2f2e41"/>
        <path id="Path_25" data-name="Path 25" d="M265.512,474.287l2.7,58.268.976,21.2a4.642,4.642,0,0,0,3.074,4.175L335.6,580.872a4.476,4.476,0,0,0,1.6.281,4.643,4.643,0,0,0,4.664-4.788l-2.6-104.767a36.93,36.93,0,0,0-30.744-35.677c-.613-.093-1.236-.187-1.859-.27a36.25,36.25,0,0,0-29.165,9.441,37.236,37.236,0,0,0-11.986,29.2Z" transform="translate(923.532 166.876)" fill="#ccc"/>
        <path id="Path_10" data-name="Path 10" d="M706.1,421.419a10.056,10.056,0,0,0,10.594,11.2l13.729,32.992L740.81,450.22l-14.63-28.97a10.11,10.11,0,0,0-20.079.169Z" transform="translate(937.412 164.001)" fill="#a0616a"/>
        <path id="Path_27" data-name="Path 27" d="M350.753,548.85a4.644,4.644,0,0,1-2.541-2.518l-32.358-77.094a12.463,12.463,0,1,1,22.984-9.647l32.358,77.1a4.679,4.679,0,0,1-2.5,6.118l-14.365,6.029a4.641,4.641,0,0,1-3.577.017Z" transform="translate(925.443 166.899)" fill="#ccc"/>
        <path id="Path_28" data-name="Path 28" d="M298.508,546.131l31.079-59.509a4.878,4.878,0,0,1,6.575-2.063l45.112,23.56a4.878,4.878,0,0,1,2.063,6.575L352.258,574.2a4.878,4.878,0,0,1-6.575,2.063L300.571,552.7a4.878,4.878,0,0,1-2.063-6.575Z" transform="translate(942.423 166.851)" fill="#3f3d56"/>
        <path id="Path_26" data-name="Path 26" d="M365.855,569.245a10.064,10.064,0,0,1-5.369-15.227l-21.478-28.56,18.534-1.147,17.554,27.3a10.111,10.111,0,0,1-9.242,17.637Z" transform="translate(925.88 166.837)" fill="#ffb8b8"/>
        <path id="Path_29" data-name="Path 29" d="M319.351,518.943a10.064,10.064,0,0,0-15.517-4.46l-29.779-19.754L274,513.3l28.29,15.91a10.111,10.111,0,0,0,17.06-10.267Z" transform="translate(923.327 166.889)" fill="#ffb8b8"/>
        <path id="Path_30" data-name="Path 30" d="M281.7,523.119l-24.337-19.278a17.163,17.163,0,0,1-7.823-27.135l22.1-28.96a10.1,10.1,0,0,1,17.13,10.284l-17.484,28.6,25.694,12.187a4.674,4.674,0,0,1,1.948,6.72l-10.372,16.414a4.682,4.682,0,0,1-3.167,2.111l-.077.012A4.7,4.7,0,0,1,281.7,523.119Z" transform="translate(922.874 166.929)" fill="#ccc"/>
        <path id="Path_31" data-name="Path 31" d="M287.845,418.574a2.135,2.135,0,0,1,1.856-2.819,4.931,4.931,0,0,1,3.476,1.715,13.834,13.834,0,0,0,3.071,2.637c1.188.6,2.8.514,3.477-.628.636-1.072.2-2.508-.185-3.753a36.908,36.908,0,0,1-1.63-9.77c-.111-3.7.411-7.562,2.46-10.448,2.644-3.725,7.371-5.139,11.845-5.036s8.875,1.484,13.307,2.357c1.53.3,3.328.456,4.352-.73,1.088-1.261.688-3.3.226-5-1.2-4.417-2.475-8.985-5.265-12.552a18.9,18.9,0,0,0-12.061-6.79,28.939,28.939,0,0,0-13.462,1.528A36.1,36.1,0,0,0,281.629,381.6a29.236,29.236,0,0,0-5.578,21.6,26.667,26.667,0,0,0,9.886,16.855Z" transform="translate(926.526 176.07)" fill="#2f2e41"/>
        <path id="Path_32" data-name="Path 32" d="M598.92,735.149a45.994,45.994,0,0,1-17.07-71.489,46,46,0,1,0,62.569,66.464,45.969,45.969,0,0,1-45.5,5.025Z" transform="translate(932.911 166.567)" fill="#3f3d56"/>
        <path id="Path_12" data-name="Path 12" d="M747.772,487.61a12.4,12.4,0,0,1-2.8-.325c-4.535-1.015-8.343-4.621-10.155-9.616l-16.347-23.453a5.09,5.09,0,0,1-.816-3.593,4.594,4.594,0,0,1,1.76-3.088l11.63-8.471a3.343,3.343,0,0,1,2.905-.55,3.931,3.931,0,0,1,2.377,2.04l11.522,22.334L769.913,443.7c3.632-2.243,8.112-1.012,10.524,2.892a11.022,11.022,0,0,1-.911,12.67L757.5,482.9a12.843,12.843,0,0,1-9.73,4.71Z" transform="translate(941.747 166.964)" fill="#2f2e41"/>
      </g>
    </g>
  </g>
</svg>
