<svg xmlns="http://www.w3.org/2000/svg" width="130" height="126" viewBox="0 0 130 126">
  <g id="logout" transform="translate(0 0.34)">
    <g id="Group_1" data-name="Group 1" transform="translate(0 1.66)">
      <path id="Path_2" data-name="Path 2" d="M77.465,112.367H14.392V16.955H77.467A2.617,2.617,0,0,0,80,14.264V4.352A2.617,2.617,0,0,0,77.467,1.66H2.533A2.617,2.617,0,0,0,0,4.352V124.968a2.617,2.617,0,0,0,2.533,2.692H77.465A2.616,2.616,0,0,0,80,124.968v-9.909A2.613,2.613,0,0,0,77.465,112.367Z" transform="translate(0 -3.66)" fill="#fff"/>
      <path id="Path_3" data-name="Path 3" d="M116.993,52.414,83,20.248a2.706,2.706,0,0,0-3.57,0L71.37,27.881a2.3,2.3,0,0,0,0,3.379L86.722,45.792H20.262a2.461,2.461,0,0,0-2.525,2.39V60.025a2.461,2.461,0,0,0,2.525,2.39H86.726L71.374,76.947a2.3,2.3,0,0,0,0,3.379l8.064,7.634a2.626,2.626,0,0,0,3.57,0L117,55.794a2.3,2.3,0,0,0,0-3.38Z" transform="translate(12.263 7.34)" fill="#fff"/>
    </g>
  </g>
</svg>
