<svg xmlns="http://www.w3.org/2000/svg" width="150" height="150" viewBox="0 0 150 150">
  <g id="premium" transform="translate(-11.11 -11.1)">
    <path id="Path_1" data-name="Path 1" d="M160.17,58.777,140.6,14.805a6.236,6.236,0,0,0-5.7-3.705H37.257a6.172,6.172,0,0,0-5.7,3.705L11.627,59.512a6.453,6.453,0,0,0,.674,6.247L81.045,158.54a6.22,6.22,0,0,0,10.044,0L159.4,66.34a6.182,6.182,0,0,0,.766-7.563ZM145.2,55.807H111.574l6.216-32.213h13.045ZM75.717,68.3h20.7l-10.35,53.587L75.717,68.3ZM73.3,55.807,67.082,23.593h37.97L98.836,55.807Zm-32-32.213H54.344L60.56,55.807H26.938L41.3,23.593ZM62.979,68.3l11.728,60.691L29.724,68.3H62.979Zm34.449,60.721L109.155,68.33H142.41Z" transform="translate(0)" fill="#1f92c5"/>
  </g>
</svg>
