<svg xmlns="http://www.w3.org/2000/svg" width="150" height="150" viewBox="0 0 150 150">
  <path id="statystyki" d="M116.25,176.5h6.562c1.875,0,3.75-2.5,3.75-5v-90c0-2.5-1.875-5-3.75-5H116.25c-1.875,0-3.75,2.5-3.75,5v90C112.5,174,114.375,176.5,116.25,176.5ZM60,176.5h6.562c1.875,0,3.75-2.5,3.75-5V94c0-2.5-1.875-5-3.75-5H60c-1.875,0-3.75,2.5-3.75,5v77.5C56.25,174,58.125,176.5,60,176.5Zm28.125,0h6.562c1.875,0,3.75-2.5,3.75-5V119c0-2.5-1.875-5-3.75-5H88.125c-1.875,0-3.75,2.5-3.75,5v52.5C84.375,174,86.25,176.5,88.125,176.5Zm57.188,18.75H14.063v-125c0-3.453-2.1-6.25-4.687-6.25H4.688C2.1,64,0,66.8,0,70.25V201.5C0,208.4,4.2,214,9.375,214H145.313c2.59,0,4.688-2.8,4.688-6.25V201.5C150,198.047,147.9,195.25,145.313,195.25ZM31.875,176.5h6.562c1.875,0,3.75-2.5,3.75-5V144c0-2.5-1.875-5-3.75-5H31.875c-1.875,0-3.75,2.5-3.75,5v27.5c0,2.5,1.875,5,3.75,5Z" transform="translate(0 -64)" fill="#1f92c5"/>
</svg>
