<svg xmlns="http://www.w3.org/2000/svg" xmlns:xlink="http://www.w3.org/1999/xlink" width="1920.901" height="1080.5" viewBox="0 0 1920.901 1080.5">
  <defs>
    <linearGradient id="linear-gradient" x1="0.5" x2="0.5" y2="1" gradientUnits="objectBoundingBox">
      <stop offset="0" stop-color="#1f92c5"/>
      <stop offset="1" stop-color="#040fd9"/>
    </linearGradient>
  </defs>
  <g id="bg1" transform="translate(0.55 0.5)">
    <rect id="Rectangle_3" data-name="Rectangle 3" width="1920" height="1080" fill="#fff"/>
    <path id="Path_30" data-name="Path 30" d="M0,68" fill="#2090c2" stroke="#707070" stroke-width="1"/>
    <path id="Path_31" data-name="Path 31" d="M1920,746.819s-90.5,89.28-296,83.139-358,54.8-358,54.8S827.5,1037.81,600,962.229c-170.852-56.762-216.511-82.889-276-143.6-18.25-18.626-80.038-58.3-127.292-75.742-3.508-1.3-7.17-2.539-10.708-3.618C-6,680.685,0,289.552,0,289.552V-26H1920" transform="translate(0 26)" stroke="#707070" stroke-width="1" fill="url(#linear-gradient)"/>
    <g id="organise" transform="translate(1040 175)">
      <g id="Group_1" data-name="Group 1">
        <path id="Path_1" data-name="Path 1" d="M569.759,855.2l-26.492-74.178s29.141,14.571,30.466,33.115c0,0-6.623-92.723-19.869-112.592,0,0,21.194,2.649,45.037,105.969,0,0,3.974-119.215-31.791-153.655,0,0,49.011,39.738,52.985,125.838v75.5Z" transform="translate(-333.233 -287)" fill="#f2f2f2"/>
        <path id="Path_2" data-name="Path 2" d="M1066.59,855.2l-6.37-17.836s7.007,3.5,7.325,7.962c0,0-1.592-22.294-4.777-27.072,0,0,5.1.637,10.829,25.479,0,0,.955-28.664-7.644-36.945,0,0,11.784,9.555,12.74,30.257V855.2Z" transform="translate(-413.816 -287)" fill="#f2f2f2"/>
        <circle id="Ellipse_1" data-name="Ellipse 1" cx="116.457" cy="116.457" r="116.457" transform="translate(431.233 199.374)" fill="#f2f2f2"/>
        <rect id="Rectangle_1" data-name="Rectangle 1" width="274.677" height="152.598" transform="translate(0 8.835)" fill="#f2f2f2"/>
        <rect id="Rectangle_2" data-name="Rectangle 2" width="274.677" height="152.598" transform="translate(292.161 8.835)" fill="#f2f2f2"/>
        <rect id="Rectangle_3-2" data-name="Rectangle 3" width="274.677" height="152.598" transform="translate(584.323 8.835)" fill="#f2f2f2"/>
        <path id="Path_3" data-name="Path 3" d="M996.086,855.616c-.184-.3-4.53-7.558-6.037-22.626-1.382-13.825-.493-37.127,11.591-69.632,22.894-61.578-5.276-111.263-5.564-111.758l1.39-.806c.073.125,7.342,12.793,11.636,32.964a143.812,143.812,0,0,1-5.956,80.16c-22.855,61.473-5.864,90.574-5.69,90.861Z" transform="translate(-402.931 -287)" fill="#3f3d56"/>
        <circle id="Ellipse_2" data-name="Ellipse 2" cx="10.441" cy="10.441" r="10.441" transform="translate(576.038 355.234)" fill="#1f92c5"/>
        <circle id="Ellipse_3" data-name="Ellipse 3" cx="10.441" cy="10.441" r="10.441" transform="translate(603.661 390.981)" fill="#3f3d56"/>
        <circle id="Ellipse_4" data-name="Ellipse 4" cx="10.441" cy="10.441" r="10.441" transform="translate(584.796 414.812)" fill="#63c2ff"/>
        <circle id="Ellipse_5" data-name="Ellipse 5" cx="10.441" cy="10.441" r="10.441" transform="translate(607.703 434.92)" fill="#f29305"/>
        <circle id="Ellipse_6" data-name="Ellipse 6" cx="10.441" cy="10.441" r="10.441" transform="translate(578.059 459.772)" fill="#3f3d56"/>
        <path id="Path_4" data-name="Path 4" d="M1002.39,856s-10.441-25.7,20.882-44.976Z" transform="translate(-404.719 -287)" fill="#3f3d56"/>
        <path id="Path_5" data-name="Path 5" d="M989.553,855.534s-4.752-27.331-41.53-27.1Z" transform="translate(-398.273 -287)" fill="#3f3d56"/>
        <rect id="Rectangle_4" data-name="Rectangle 4" width="273.874" height="13.653" transform="translate(0.402)" fill="#3f3d56"/>
        <rect id="Rectangle_5" data-name="Rectangle 5" width="274.677" height="13.653" transform="translate(292.476)" fill="#3f3d56"/>
        <rect id="Rectangle_6" data-name="Rectangle 6" width="273.874" height="13.653" transform="translate(584.724)" fill="#3f3d56"/>
        <rect id="Rectangle_7" data-name="Rectangle 7" width="49.795" height="35.339" transform="translate(20.882 34.937)" fill="#fff"/>
        <rect id="Rectangle_8" data-name="Rectangle 8" width="137.339" height="4.016" transform="translate(116.457 34.937)" fill="#fff"/>
        <rect id="Rectangle_9" data-name="Rectangle 9" width="137.339" height="4.016" transform="translate(116.457 51)" fill="#fff"/>
        <rect id="Rectangle_10" data-name="Rectangle 10" width="137.339" height="4.016" transform="translate(116.457 67.063)" fill="#fff"/>
        <rect id="Rectangle_11" data-name="Rectangle 11" width="49.795" height="35.339" transform="translate(328.237 34.937)" fill="#fff"/>
        <rect id="Rectangle_12" data-name="Rectangle 12" width="137.339" height="4.016" transform="translate(399.901 34.937)" fill="#fff"/>
        <rect id="Rectangle_13" data-name="Rectangle 13" width="137.339" height="4.016" transform="translate(399.901 51)" fill="#fff"/>
        <rect id="Rectangle_14" data-name="Rectangle 14" width="137.339" height="4.016" transform="translate(399.901 67.063)" fill="#fff"/>
        <rect id="Rectangle_15" data-name="Rectangle 15" width="49.795" height="35.339" transform="translate(639.058 34.937)" fill="#fff"/>
        <rect id="Rectangle_16" data-name="Rectangle 16" width="137.339" height="4.016" transform="translate(700.78 34.937)" fill="#fff"/>
        <rect id="Rectangle_17" data-name="Rectangle 17" width="137.339" height="4.016" transform="translate(700.78 51)" fill="#fff"/>
        <rect id="Rectangle_18" data-name="Rectangle 18" width="137.339" height="4.016" transform="translate(700.78 67.063)" fill="#fff"/>
        <circle id="Ellipse_7" data-name="Ellipse 7" cx="16.063" cy="16.063" r="16.063" transform="translate(29.716 36.945)" fill="#f29305"/>
        <circle id="Ellipse_8" data-name="Ellipse 8" cx="16.063" cy="16.063" r="16.063" transform="translate(648.726 36.945)" fill="#f29305"/>
        <rect id="Rectangle_19" data-name="Rectangle 19" width="1.606" height="4.819" transform="translate(126.714 150)" fill="#3f3d56"/>
        <path id="Path_6" data-name="Path 6" d="M418.32,603.008h-1.606V593.37h1.606Zm0-19.276h-1.606v-9.638h1.606Zm0-19.276h-1.606v-9.638h1.606Zm0-19.276h-1.606v-9.638h1.606Zm0-19.276h-1.606v-9.638h1.606Zm0-19.276h-1.606V496.99h1.606Zm0-19.276h-1.606v-9.638h1.606Zm0-19.276h-1.606v-9.638h1.606Zm0-19.276h-1.606v-9.638h1.606Zm0-19.276h-1.606V419.89h1.606Z" transform="translate(-290 -261.635)" fill="#3f3d56"/>
        <path id="Path_7" data-name="Path 7" d="M132.336,374.268h-5.622v-5.622h1.606v4.015h4.016Z" transform="translate(0 -26.142)" fill="#3f3d56"/>
        <path id="Path_8" data-name="Path 8" d="M997.16,618.268h-7.535v-1.606h7.535Zm-15.07,0h-7.535v-1.606h7.535Zm-15.07,0h-7.536v-1.606h7.536Zm-15.071,0h-7.533v-1.606h7.535Zm-15.07,0h-7.536v-1.606h7.536Zm-15.071,0h-7.535v-1.606h7.535Zm-15.07,0H899.2v-1.606h7.536Zm-15.071,0h-7.535v-1.606h7.535Zm-15.07,0h-7.536v-1.606H876.6Zm-15.071,0h-7.535v-1.606h7.535Zm-15.07,0H838.92v-1.606h7.536Zm-15.071,0H823.85v-1.606h7.535Zm-15.07,0h-7.536v-1.606h7.536Zm-15.071,0h-7.535v-1.606h7.535Zm-15.07,0h-7.536v-1.606h7.536Zm-15.071,0h-7.535v-1.606H771.1Zm-15.07,0H748.5v-1.606h7.536Zm-15.071,0h-7.535v-1.606h7.535Zm-15.07,0h-7.535v-1.606h7.535Zm-15.07,0h-7.535v-1.606h7.535Zm-15.07,0h-7.535v-1.606h7.536Zm-15.07,0h-7.535v-1.606h7.535Zm-15.07,0h-7.535v-1.606h7.535Zm-15.07,0H643v-1.606h7.535Zm-15.07,0h-7.535v-1.606h7.535Zm-15.07,0h-7.535v-1.606H620.4Zm-15.07,0H597.8v-1.606h7.535Zm-15.07,0h-7.535v-1.606h7.535Zm-15.07,0h-7.535v-1.606h7.535Zm-15.07,0h-7.535v-1.606h7.535Zm-15.07,0h-7.535v-1.606h7.535Zm-15.07,0h-7.535v-1.606h7.535Zm-15.07,0H507.37v-1.606H514.9Zm-15.07,0H492.3v-1.606h7.535Zm-15.07,0H477.23v-1.606h7.535Zm-15.07,0H462.16v-1.606H469.7Zm-15.07,0H447.1v-1.606h7.535Zm-15.07,0h-7.535v-1.606h7.535Z" transform="translate(-290 -270.253)" fill="#3f3d56"/>
        <path id="Path_9" data-name="Path 9" d="M883.465,374.268h-5.622v-1.607h4.015v-4.015h1.607Z" transform="translate(-161 -26.142)" fill="#3f3d56"/>
        <path id="Path_10" data-name="Path 10" d="M1173.46,603.008h-1.606V593.37h1.606Zm0-19.276h-1.606v-9.638h1.606Zm0-19.276h-1.606v-9.638h1.606Zm0-19.276h-1.606v-9.638h1.606Zm0-19.276h-1.606v-9.638h1.606Zm0-19.276h-1.606V496.99h1.606Zm0-19.276h-1.606v-9.638h1.606Zm0-19.276h-1.606v-9.638h1.606Zm0-19.276h-1.606v-9.638h1.606Zm0-19.276h-1.606V419.89h1.606Z" transform="translate(-451 -261.635)" fill="#3f3d56"/>
        <rect id="Rectangle_20" data-name="Rectangle 20" width="1.606" height="4.819" transform="translate(720.858 150)" fill="#3f3d56"/>
        <rect id="Rectangle_21" data-name="Rectangle 21" width="274.677" height="285.921" transform="translate(292.161 282.276)" fill="#3f3d56"/>
        <rect id="Rectangle_22" data-name="Rectangle 22" width="49.795" height="35.339" transform="translate(328.237 335.582)" fill="#fff"/>
        <rect id="Rectangle_23" data-name="Rectangle 23" width="137.339" height="4.016" transform="translate(399.901 336.975)" fill="#fff"/>
        <rect id="Rectangle_24" data-name="Rectangle 24" width="137.339" height="4.016" transform="translate(399.901 351.902)" fill="#fff"/>
        <rect id="Rectangle_25" data-name="Rectangle 25" width="137.339" height="4.016" transform="translate(399.901 366.829)" fill="#fff"/>
        <rect id="Rectangle_26" data-name="Rectangle 26" width="49.795" height="35.339" transform="translate(328.237 446.921)" fill="#fff"/>
        <rect id="Rectangle_27" data-name="Rectangle 27" width="137.339" height="4.016" transform="translate(399.901 446.921)" fill="#fff"/>
        <rect id="Rectangle_28" data-name="Rectangle 28" width="137.339" height="4.016" transform="translate(399.901 462.984)" fill="#fff"/>
        <rect id="Rectangle_29" data-name="Rectangle 29" width="137.339" height="4.016" transform="translate(399.901 479.047)" fill="#fff"/>
        <path id="Path_11" data-name="Path 11" d="M418.652,389.229,401.607,366.5l4.038-3.028,13.885,18.514,35.393-28.665,3.2,3.906Z" transform="translate(-67.109 -26.372)" fill="#1f92c5"/>
        <path id="Path_12" data-name="Path 12" d="M418.652,515.324,401.607,492.6l4.038-3.028,13.885,18.513,35.393-28.665,3.2,3.907Z" transform="translate(-67.109 -35.784)" fill="#1f92c5"/>
        <rect id="Rectangle_30" data-name="Rectangle 30" width="830.89" height="1.606" transform="translate(7.228 567.394)" fill="#3f3d56"/>
        <path id="Path_13" data-name="Path 13" d="M834.574,414.268s26.5-11.549,38.953.651S840.2,423.1,834.574,414.268Z" transform="translate(-379.565 -255.873)" fill="#3f3d56"/>
        <path id="Path_14" data-name="Path 14" d="M880.339,359.5c-8.907-15.05-26.528-15.751-26.528-15.751s-17.171-2.2-28.186,20.725c-10.267,21.364-24.437,41.992-2.281,46.993l4-12.456,2.478,13.383a86.664,86.664,0,0,0,9.48.162c23.727-.766,46.323.224,45.6-8.29C883.932,392.945,888.909,373.978,880.339,359.5Z" transform="translate(-378.76 -251.893)" fill="#2f2e41"/>
        <path id="Path_15" data-name="Path 15" d="M892.8,632.323S881.558,653.2,874.33,653.2s-6.425,13.654-4.819,16.866,5.622,10.441-.8,20.882c-2.244,3.647-1.843,7.784-.37,11.624,4.126,10.758,20.178,7.5,19.666-4.012q-.009-.19-.021-.383c-.8-12.85,5.622-32.929,12.047-37.748S912.08,642.76,912.08,642.76Z" transform="translate(-385.295 -275.2)" fill="#ffb8b8"/>
        <path id="Path_16" data-name="Path 16" d="M815.7,627.5s11.244,20.882,18.472,20.882,6.425,13.654,4.819,16.866-5.622,10.441.8,20.882c2.244,3.647,1.843,7.784.37,11.624-4.126,10.758-20.178,7.5-19.666-4.012q.009-.19.021-.383c.8-12.85-5.622-32.929-12.047-37.748s-12.047-17.669-12.047-17.669Z" transform="translate(-373.621 -274.813)" fill="#ffb8b8"/>
        <path id="Path_17" data-name="Path 17" d="M824.534,524.7l-4.819,10.441s-70.677,23.291-64.252,50.6,37.748,69.874,42.567,68.268,30.52-6.425,31.323-20.079-18.472-37.748-18.472-37.748l26.5-24.094,38.568-.8,32.913,24.9s-34.535,30.52-19.276,42.567,37.748,20.079,40.961,15.26,39.354-76.3,33.732-82.724-62.646-30.52-62.646-30.52l-15.26-21.685-59.433-3.213Z" transform="translate(-382.416 -268.744)" fill="#2f2e41"/>
        <path id="Path_18" data-name="Path 18" d="M838.991,392.181s4.016,26.5-4.016,29.716,16.063,16.866,16.063,16.866h13.654l8.835-18.472s-8.031-14.457-3.213-28.11S838.991,392.181,838.991,392.181Z" transform="translate(-379.28 -254.925)" fill="#ffb8b8"/>
        <path id="Path_19" data-name="Path 19" d="M838.991,392.181s4.016,26.5-4.016,29.716,16.063,16.866,16.063,16.866h13.654l8.835-18.472s-8.031-14.457-3.213-28.11S838.991,392.181,838.991,392.181Z" transform="translate(-379.28 -254.925)" opacity="0.1"/>
        <path id="Path_20" data-name="Path 20" d="M833.369,414.669s8.835,9.638,10.441,11.244,8.835,10.441,24.094-2.409,16.866,2.409,16.866,2.409v96.378s-12.85-5.622-23.291,0-32.126-1.606-32.126-1.606l-4.016-99.591Z" transform="translate(-379.728 -258.612)" fill="#fff"/>
        <path id="Path_21" data-name="Path 21" d="M839.269,414.669s-7.506-3.213-13.931,0-28.913,19.276-27.307,26.5S820.519,499,806.062,523.09,789.2,553.61,789.2,553.61l35.339-18.472s27.307-16.866,24.9-27.307S839.269,414.669,839.269,414.669Z" transform="translate(-373.753 -259.43)" fill="#00b0ff"/>
        <path id="Path_22" data-name="Path 22" d="M871.127,414.669s16.857,1.606,17.66,3.213,25.3,8.433,23.693,15.661-23.693,71.882-14.055,83.929,25.7,28.913,20.079,30.52-15.26-2.409-24.9,0-32.126-17.669-29.716-39.354S863.908,420.291,871.127,414.669Z" transform="translate(-385.812 -259.344)" fill="#00b0ff"/>
        <path id="Path_23" data-name="Path 23" d="M830.96,568.071V576.1s-4.016,18.472,8.835,17.669,4.819-22.488,4.819-22.488l-.8-7.228Z" transform="translate(-376.715 -267.636)" fill="#ffb8b8"/>
        <path id="Path_24" data-name="Path 24" d="M867.1,568.874s-8.835,18.472,0,20.079,15.26-10.441,15.26-13.654S867.1,568.874,867.1,568.874Z" transform="translate(-382.206 -267.606)" fill="#ffb8b8"/>
        <ellipse id="Ellipse_9" data-name="Ellipse 9" cx="1.606" cy="3.213" rx="1.606" ry="3.213" transform="translate(494.172 124.603)" fill="#ffb8b8"/>
        <ellipse id="Ellipse_10" data-name="Ellipse 10" cx="1.606" cy="3.213" rx="1.606" ry="3.213" transform="translate(454.289 124.603)" fill="#ffb8b8"/>
        <path id="Path_25" data-name="Path 25" d="M892.8,425.11s20.079,0,19.276,8.031-27.307,146.174-27.307,146.174-11.244-10.441-20.882-8.031Z" transform="translate(-385.078 -261.011)" fill="#00b0ff"/>
        <path id="Path_26" data-name="Path 26" d="M814.9,427.52s-20.079,4.016-20.079,16.063,28.913,127.7,32.929,127.7,19.276-2.409,19.276-6.425S814.9,427.52,814.9,427.52Z" transform="translate(-373.98 -260.853)" fill="#00b0ff"/>
        <path id="Path_27" data-name="Path 27" d="M819.314,451.213l18.071,70.67S828.952,460.047,819.314,451.213Z" transform="translate(-375.055 -260.46)" opacity="0.2"/>
        <path id="Path_28" data-name="Path 28" d="M889.6,441.283l-18.276,92.4S877.168,446.612,889.6,441.283Z" transform="translate(-383.433 -260.326)" opacity="0.2"/>
        <circle id="Ellipse_11" data-name="Ellipse 11" cx="23.291" cy="23.291" r="23.291" transform="translate(452.157 105.745)" fill="#ffb8b8"/>
        <path id="Path_29" data-name="Path 29" d="M586.4,114.046l-17.409-9.119-24.041,3.73-4.974,21.969,12.382-.476,3.459-8.071v7.938l5.713-.22,3.316-12.85,2.073,13.679,20.31-.414Z" transform="translate(-89.372 -7.695)" fill="#2f2e41"/>
      </g>
    </g>
  </g>
</svg>
