<svg id="add_1_" data-name="add (1)" xmlns="http://www.w3.org/2000/svg" width="130" height="130" viewBox="0 0 130 130">
  <g id="Group_17" data-name="Group 17">
    <g id="Group_16" data-name="Group 16">
      <path id="Path_156" data-name="Path 156" d="M65,0a65,65,0,1,0,65,65A65.071,65.071,0,0,0,65,0Zm0,119.93A54.93,54.93,0,1,1,119.93,65,54.994,54.994,0,0,1,65,119.93Z" fill="#7a766d"/>
    </g>
  </g>
  <g id="Group_19" data-name="Group 19" transform="translate(36 35.75)">
    <g id="Group_18" data-name="Group 18">
      <path id="Path_157" data-name="Path 157" d="M190.189,159.613H170.855v-19.5a4.834,4.834,0,1,0-9.667,0v19.5H141.855a4.875,4.875,0,0,0,0,9.75h19.333v19.5a4.834,4.834,0,1,0,9.667,0v-19.5h19.333a4.875,4.875,0,0,0,0-9.75Z" transform="translate(-137.022 -135.238)" fill="#7a766d"/>
    </g>
  </g>
</svg>
