<svg id="addcol" xmlns="http://www.w3.org/2000/svg" width="100" height="100" viewBox="0 0 100 100">
  <g id="Group_17" data-name="Group 17">
    <g id="Group_16" data-name="Group 16">
      <path id="Path_156" data-name="Path 156" d="M50,0a50,50,0,1,0,50,50A50.055,50.055,0,0,0,50,0Zm0,92.254A42.254,42.254,0,1,1,92.254,50,42.3,42.3,0,0,1,50,92.254Z" fill="#f29305"/>
    </g>
  </g>
  <g id="Group_19" data-name="Group 19" transform="translate(21 20.75)">
    <g id="Group_18" data-name="Group 18">
      <path id="Path_157" data-name="Path 157" d="M190.189,159.613H170.855v-19.5a4.834,4.834,0,1,0-9.667,0v19.5H141.855a4.875,4.875,0,0,0,0,9.75h19.333v19.5a4.834,4.834,0,1,0,9.667,0v-19.5h19.333a4.875,4.875,0,0,0,0-9.75Z" transform="translate(-137.022 -135.238)" fill="#3192dc"/>
    </g>
  </g>
</svg>
