<svg xmlns="http://www.w3.org/2000/svg" xmlns:xlink="http://www.w3.org/1999/xlink" width="130" height="130" viewBox="0 0 130 130">
  <defs>
    <clipPath id="clip-path">
      <rect id="Rectangle_15" data-name="Rectangle 15" width="130" height="130"/>
    </clipPath>
  </defs>
  <g id="cp" transform="translate(-25 29.05)">
    <g id="upc" transform="translate(25 -29.05)">
      <g id="Group_6" data-name="Group 6" clip-path="url(#clip-path)">
        <path id="Path_146" data-name="Path 146" d="M65,130A65,65,0,1,0,0,65a64.987,64.987,0,0,0,65,65" fill="#239a98"/>
      </g>
      <g id="Group_7" data-name="Group 7" clip-path="url(#clip-path)">
        <path id="Path_147" data-name="Path 147" d="M161.274,172.439c-1.213-6.067-.318-14.5,3.669-15.976a63.329,63.329,0,0,1-.116-6.616c.058-2.2.2-3.842-.549-3.756-.9.116-3.813,6.038-4.42,13.607a34.239,34.239,0,0,0,.347,7.944c.289,1.647.636,3.236,1.069,4.8" transform="translate(-113.607 -103.885)" fill="#fff"/>
      </g>
      <g id="Group_8" data-name="Group 8" clip-path="url(#clip-path)">
        <path id="Path_148" data-name="Path 148" d="M276,172.5a43.707,43.707,0,0,0,1.04-4.767,35.953,35.953,0,0,0,.376-7.944c-.636-7.569-3.553-13.462-4.449-13.607-.722-.116-.607,1.531-.549,3.756a63.333,63.333,0,0,1-.116,6.616c4.016,1.444,4.94,9.88,3.7,15.947" transform="translate(-193.636 -103.95)" fill="#fff"/>
      </g>
      <g id="Group_9" data-name="Group 9" clip-path="url(#clip-path)">
        <path id="Path_149" data-name="Path 149" d="M197.5,154.842a99,99,0,0,1,4.073,12.971,4.784,4.784,0,0,1,7.771,0,94.509,94.509,0,0,1,4.073-12.971c-.116-1.04-.664-4.131-.9-5.258C212.06,147.5,209.951,138,205.5,138s-6.587,9.476-7.049,11.584c-.289,1.127-.838,4.218-.953,5.258" transform="translate(-140.444 -98.133)" fill="#fff"/>
      </g>
      <g id="Group_10" data-name="Group 10" clip-path="url(#clip-path)">
        <path id="Path_150" data-name="Path 150" d="M189.093,166.064a48.163,48.163,0,0,1,2.456-9.764c-1.791.318-3.813,4.478-4.449,7.656a9.51,9.51,0,0,1,1.993,2.109" transform="translate(-133.049 -111.147)" fill="#fff"/>
      </g>
      <g id="Group_11" data-name="Group 11" clip-path="url(#clip-path)">
        <path id="Path_151" data-name="Path 151" d="M252.049,163.956c-.636-3.178-2.687-7.338-4.449-7.656a47.649,47.649,0,0,1,2.456,9.764,8.817,8.817,0,0,1,1.993-2.109" transform="translate(-176.071 -111.147)" fill="#fff"/>
      </g>
      <g id="Group_12" data-name="Group 12" clip-path="url(#clip-path)">
        <path id="Path_152" data-name="Path 152" d="M185.892,211.489s-.173.116-.173.029a1.651,1.651,0,0,1,.2-.231c4.853-3.842,6.818-11.151,5.98-11.787-.462-.144-1.242,1.618-2.4,3.756a18.152,18.152,0,0,1-1.733,2.716s-.087.116-.116.087c-.029,0,.029-.116.029-.116a36.071,36.071,0,0,0,3.987-14.618c.26-5.258-.664-5.518-1.069-3.784-.433,1.993-.953,4.536-1.358,7.049a51.545,51.545,0,0,1-6.384,17.622c-.347.549-.636.52-.722.4-.058-.087-.029-.2.2-.607,6.76-12.509,3.9-25.1-.116-25.249-3.842-.144-7.511,14.993-7.944,16.669a25.377,25.377,0,0,1,3.033,12.1.278.278,0,0,1-.26.231.307.307,0,0,1-.289-.26h0c0-2.831-2.138-13.578-7.193-13.578s-7.193,10.747-7.193,13.578h0a.267.267,0,0,1-.289.26.278.278,0,0,1-.26-.231,25.308,25.308,0,0,1,3.033-12.1c-.433-1.647-4.1-16.813-7.944-16.669-4.016.144-6.876,12.74-.116,25.249.231.4.26.52.2.607-.087.116-.376.144-.722-.4a51.314,51.314,0,0,1-6.384-17.622c-.376-2.513-.9-5.056-1.358-7.049-.376-1.7-1.329-1.444-1.069,3.784a36.691,36.691,0,0,0,3.987,14.618s.058.116.029.116c-.058.029-.116-.087-.116-.087a21.428,21.428,0,0,1-1.733-2.716c-1.156-2.138-1.936-3.929-2.4-3.756-.838.664,1.127,7.944,5.98,11.787,0,0,.231.173.2.231,0,.087-.173-.029-.173-.029-1.878-1.156-4.42-3.784-4.853-2.831-.289,1.069,3.611,5.662,9.909,7.973,0,0,.433.144.433.231s-.26,0-.26,0c-.9-.289-3.842-1.416-4.593-1.3-.809.116-.347.693.433,1.358a17.949,17.949,0,0,0,9.187,3.12c.029.433,1.733,1.964,6.038,1.964s6.009-1.531,6.038-1.964a18.071,18.071,0,0,0,9.187-3.12c.78-.693,1.242-1.271.433-1.358-.751-.116-3.7,1.011-4.593,1.3,0,0-.26.087-.26,0s.433-.231.433-.231c6.3-2.311,10.2-6.876,9.909-7.973-.376-.924-2.918,1.676-4.8,2.831" transform="translate(-104.569 -132.68)" fill="#fff"/>
      </g>
      <g id="Group_13" data-name="Group 13" clip-path="url(#clip-path)">
        <path id="Path_153" data-name="Path 153" d="M282.5,310.976v4.564a2.113,2.113,0,0,1-1.936,2.224,1.626,1.626,0,0,1-2.051-1.358,8.158,8.158,0,0,1-.058-.838v-4.651a1.084,1.084,0,0,0-.029-.318h-1.82a.224.224,0,0,0-.029.087c0,2.051-.029,4.1.029,6.124a2.634,2.634,0,0,0,1.156,2.109,3.706,3.706,0,0,0,4.564-.433l.289-.289v1.069h1.733V310.6h-1.878v.376Z" transform="translate(-196.676 -220.871)" fill="#fff"/>
      </g>
      <g id="Group_14" data-name="Group 14" clip-path="url(#clip-path)">
        <path id="Path_154" data-name="Path 154" d="M315.742,316.038a2.353,2.353,0,0,1-4.276.2,3.476,3.476,0,0,1-.116-2.889,2.41,2.41,0,0,1,2.542-1.531,2.359,2.359,0,0,1,2.08,1.993,7.161,7.161,0,0,1,.087.78c.029,0,.029,0,.058.029-.144.462-.2.953-.376,1.416m-3.784-5.431c-.26.144-.491.347-.78.549v-.9H309.3v13.2h1.878V318.32c1.387.78,1.387.78,2.34.867a3.607,3.607,0,0,0,3.524-1.733,5.321,5.321,0,0,0,.52-4.709,3.769,3.769,0,0,0-5.6-2.138" transform="translate(-219.947 -220.502)" fill="#fff"/>
      </g>
      <g id="Group_15" data-name="Group 15" clip-path="url(#clip-path)">
        <path id="Path_155" data-name="Path 155" d="M349.925,316.134a1.866,1.866,0,0,0-.231.26,3.54,3.54,0,0,1-2.369,1.127,2.754,2.754,0,0,1-2.86-3.264,2.485,2.485,0,0,1,2.2-2.369,2.941,2.941,0,0,1,2.629.982c.087.087.144.2.231.289.52-.433.982-.838,1.444-1.213a3.831,3.831,0,0,0-1.618-1.358,5.544,5.544,0,0,0-4.449.029,3.385,3.385,0,0,0-1.964,2.109,6.551,6.551,0,0,0-.347,1.849,4.181,4.181,0,0,0,2.6,4.247,5.546,5.546,0,0,0,3.553.2,5.468,5.468,0,0,0,2.369-1.589c-.433-.462-.809-.867-1.184-1.3" transform="translate(-243.614 -220.541)" fill="#fff"/>
      </g>
    </g>
  </g>
</svg>
