<svg xmlns="http://www.w3.org/2000/svg" width="500" height="460" viewBox="0 0 500 460">
  <g id="paid" transform="translate(-1024 397)">
    <g id="paid-2" data-name="paid">
      <g id="income" transform="translate(1024 -397)">
        <path id="Path_46" data-name="Path 46" d="M305.221,106.043l34.62,19.415c3.9,2.185,1.927,7.021-3,7.044l-10.864.05h-.032c-2.795,0-5.076-1.715-5.094-3.833-.05-6.2-6.713-11.2-14.892-11.151s-14.761,5.093-14.711,11.29c.1,11.973,10.793,22.045,25.285,25.146v.543c0,6.2,6.628,11.221,14.8,11.221s14.8-5.024,14.8-11.221v-.566a38.033,38.033,0,0,0,15.365-6.858c6.515-5,10.069-11.627,10.005-18.673v-.07c-.074-8.23-5.33-16.067-14.059-20.962L322.828,88c-3.931-2.205-1.866-6.957,3.031-6.957H336.74c2.809,0,5.095,1.73,5.095,3.857,0,6.2,6.627,11.221,14.8,11.221s14.8-5.024,14.8-11.221c0-12.033-10.723-22.2-25.3-25.311v-.54c0-6.2-6.627-11.221-14.8-11.221s-14.8,5.024-14.8,11.221v.525c-14.615,3.1-25.371,13.274-25.371,25.326,0,8.3,5.257,16.2,14.06,21.141Z" transform="translate(-8.114)" fill="#f29305"/>
        <path id="Path_47" data-name="Path 47" d="M315.291,208.128c60.716,0,110.11-46.683,110.11-104.064S376.006,0,315.291,0s-110.11,46.683-110.11,104.064S254.576,208.128,315.291,208.128Zm0-183.479c46.339,0,84.037,35.626,84.037,79.416s-37.7,79.416-84.037,79.416-84.037-35.626-84.037-79.416S268.954,24.648,315.291,24.648Z" transform="translate(9.562)" fill="#f29305"/>
        <path id="Path_48" data-name="Path 48" d="M489.927,287.186A47.037,47.037,0,0,0,424.895,277l-55.733,38.181A45.8,45.8,0,0,0,328.7,290.345H288.945a107.926,107.926,0,0,0-74.5-30.217A106.667,106.667,0,0,0,156.1,277.48a110.7,110.7,0,0,0-37.377,41.041l-7.463,4.673L109.33,317.4a14.569,14.569,0,0,0-18.6-9.342L9.915,336.34A15.093,15.093,0,0,0,.791,355.387l48.9,146.462a14.568,14.568,0,0,0,18.6,9.342l80.819-28.277c7.218-2.526,11.946-10.593,8.962-19.532l128.243-4.065a163.882,163.882,0,0,0,96.866-31.766l96.711-70.442c22.172-16.161,26.749-47.909,10.039-69.923ZM72.673,477.953,33.251,359.878l53.1-18.578c5.72,17.132,33.519,100.393,39.422,118.076ZM462.9,332.664l-96.711,70.442a135.219,135.219,0,0,1-80.115,26.21c-.15,0-.3,0-.453.007L148.151,433.68l-27.178-81.4,16.519-10.344.011-.008A15.029,15.029,0,0,0,143,335.743c13.481-28.137,40.861-45.617,71.454-45.617a77.918,77.918,0,0,1,57.817,25.519,14.727,14.727,0,0,0,10.649,4.7H328.7a16.992,16.992,0,0,1,0,33.974H246.057a15,15,0,0,0,0,30H328.7a45.018,45.018,0,0,0,32.446-13.764,46.989,46.989,0,0,0,12.157-22.122l67.989-46.577c.082-.056.163-.113.244-.171a18.226,18.226,0,0,1,25.255,3.909,19.235,19.235,0,0,1-3.89,27.073Z" transform="translate(0 -52)"/>
      </g>
      <rect id="Rectangle_1" data-name="Rectangle 1" width="65" height="133" transform="translate(1049.586 -93.514) rotate(-19)" fill="#1f92c5"/>
    </g>
  </g>
</svg>
