<svg xmlns="http://www.w3.org/2000/svg" width="130" height="130" viewBox="0 0 130 130">
  <path id="spotify" d="M65,0a65,65,0,1,0,65,65A65,65,0,0,0,65,0ZM93.289,94.333a4.443,4.443,0,0,1-6.08,1.6C75.528,89.1,62.034,88,52.769,88.286A85.434,85.434,0,0,0,34.9,90.645a4.445,4.445,0,0,1-2.356-8.572,92.551,92.551,0,0,1,19.7-2.665,86.775,86.775,0,0,1,18.98,1.374,64.061,64.061,0,0,1,20.465,7.47A4.445,4.445,0,0,1,93.289,94.333Zm8.264-17.163a5.263,5.263,0,0,1-7.2,1.889c-13.836-8.086-29.82-9.385-40.795-9.051A101.222,101.222,0,0,0,32.394,72.8,5.265,5.265,0,0,1,29.6,62.649a109.6,109.6,0,0,1,23.337-3.157A102.806,102.806,0,0,1,75.422,61.12a75.891,75.891,0,0,1,24.241,8.848A5.264,5.264,0,0,1,101.552,77.17Zm5.08-15.605a6.428,6.428,0,0,1-3.253-.883C70.486,41.458,27.817,52.886,27.39,53a6.458,6.458,0,0,1-3.43-12.452A134.427,134.427,0,0,1,52.585,36.68a126.125,126.125,0,0,1,27.578,2A93.079,93.079,0,0,1,109.9,49.53a6.459,6.459,0,0,1-3.264,12.035Z" fill="#00d95f"/>
</svg>
