<svg xmlns="http://www.w3.org/2000/svg" width="500" height="460" viewBox="0 0 500 460">
  <g id="subscription" transform="translate(-11.667)">
    <g id="Group_1" data-name="Group 1" transform="translate(19.17 7.5)">
      <path id="Path_1" data-name="Path 1" d="M19.17,62.84h166.5V229.23H19.17Z" transform="translate(-19.17 -7.5)" fill="#eaf6ff"/>
      <path id="Path_2" data-name="Path 2" d="M185.67,62.84V229.23H76.65a17.336,17.336,0,0,0,17.34-17.34V62.84Z" transform="translate(-19.17 -7.5)" fill="#c8effe"/>
      <path id="Path_3" data-name="Path 3" d="M326.32,62.84H492.83V229.22H326.32Z" transform="translate(-7.839 -7.5)" fill="#eaf6ff"/>
      <path id="Path_4" data-name="Path 4" d="M492.83,62.84V229.22H448.66a17.916,17.916,0,0,0,17.92-17.92V62.84Z" transform="translate(-7.839 -7.5)" fill="#c8effe"/>
      <path id="Path_5" data-name="Path 5" d="M19.17,32.42h166.5V62.84H19.17Z" transform="translate(-19.17 -7.5)" fill="#00b0ff"/>
      <path id="Path_6" data-name="Path 6" d="M185.67,32.42V62.84H93.99V50.24A17.822,17.822,0,0,0,76.17,32.42Z" transform="translate(-19.17 -7.5)" fill="#62dbfb"/>
      <path id="Path_7" data-name="Path 7" d="M326.32,32.42H492.83V62.84H326.32Z" transform="translate(-7.839 -7.5)" fill="#f29305"/>
      <path id="Path_8" data-name="Path 8" d="M492.83,32.42V62.84H466.58V46.29a13.87,13.87,0,0,0-13.87-13.87Z" transform="translate(-7.839 -7.5)" fill="#f29305"/>
      <path id="Path_9" data-name="Path 9" d="M383.33,7.5V62.84L254.217,67.667,125.11,62.84V7.5Z" transform="translate(-13.598 -7.5)" fill="#1f92c5"/>
      <path id="Path_10" data-name="Path 10" d="M383.33,7.5V62.84H350.35V28.22A20.716,20.716,0,0,0,329.64,7.5Z" transform="translate(-10.793 -7.5)" fill="#4278c3"/>
      <path id="Path_11" data-name="Path 11" d="M125.11,62.84H383.33V291.48H125.11Z" transform="translate(-13.598 -7.5)" fill="#eaf6ff"/>
      <path id="Path_12" data-name="Path 12" d="M320.652,186.148v14.407a14.765,14.765,0,0,1-14.76,14.76h-99.8a14.765,14.765,0,0,1-14.76-14.76V186.148a14.767,14.767,0,0,1,14.76-14.771h99.8A14.767,14.767,0,0,1,320.652,186.148Z" transform="translate(-13.505 -26.309)" fill="#f29305"/>
      <path id="Path_13" data-name="Path 13" d="M320.65,186.15v14.41a14.769,14.769,0,0,1-14.76,14.76H280.06a14.777,14.777,0,0,0,14.77-14.76V186.15a14.773,14.773,0,0,0-14.77-14.77h25.83A14.764,14.764,0,0,1,320.65,186.15Z" transform="translate(-12.344 -26.309)" fill="#ffc250"/>
      <path id="Path_14" data-name="Path 14" d="M383.33,62.84V291.48H327.61a22.747,22.747,0,0,0,22.74-22.75V62.84Z" transform="translate(-10.808 -7.5)" fill="#fff"/>
      <path id="Path_15" data-name="Path 15" d="M361.949,309.039,352.7,273.393a19.442,19.442,0,0,0-18.823-14.559h-.307a19.453,19.453,0,0,0-18.77,14.338c-.009.031-.023.057-.032.088-.021.078-.035.158-.055.237-.057.226-.109.453-.158.682-.034.16-.069.319-.1.48-.045.238-.083.478-.118.719-.023.155-.049.31-.068.466-.033.265-.057.533-.079.8-.011.135-.027.267-.035.4q-.037.6-.04,1.2v-7.372a19.317,19.317,0,0,0-2.729-9.9,19.514,19.514,0,0,0-2.852-3.725c-.04-.04-.074-.085-.114-.125a19.377,19.377,0,0,0-13.743-5.691h-3.067a19.432,19.432,0,0,0-19.438,19.436V259.519a19.5,19.5,0,0,0-19.446-19.447h-3.059a19.422,19.422,0,0,0-19.385,18.4c-.019.348-.053.692-.053,1.044v8.239c0-.487-.024-.969-.06-1.448V171.381a19.421,19.421,0,1,0-38.841,0v140a19.425,19.425,0,0,0-38.721-2.229l-9.86,85.38a51.613,51.613,0,0,0,7.381,33.088q.823,1.33,1.729,2.613a53.2,53.2,0,0,0,8.508,9.36l26.657,22.95,4.306,3.707V504.5H340.162V466.249l20.967-74.675a158.271,158.271,0,0,0,.82-82.535Z" transform="translate(-13.563 -59.5)" fill="#ffcebf"/>
      <path id="Path_16" data-name="Path 16" d="M361.13,391.57l-20.97,74.68V504.5H308a13.072,13.072,0,0,0,7.61-11.876V466.25l20.97-74.68a158.252,158.252,0,0,0,.82-82.53l-9.26-35.65a19.363,19.363,0,0,0-6.7-10.31c.01-.01.03-.02.04-.03a19.315,19.315,0,0,1,12.09-4.22h.3a19.45,19.45,0,0,1,18.83,14.56l9.25,35.65a158.252,158.252,0,0,1-.82,82.53Z" transform="translate(-11.277 -59.5)" fill="#ffb09e"/>
      <path id="Path_17" data-name="Path 17" d="M191.325,311.563v49.99a6.315,6.315,0,0,1-11.109,4.119,35.055,35.055,0,0,1-8.38-23.217V312.927a17.89,17.89,0,0,0-11.885-16.857,19.425,19.425,0,0,1,31.374,15.493Z" transform="translate(-15.563 -42.63)" fill="#ffb09e"/>
      <path id="Path_18" data-name="Path 18" d="M164.1,92.234h59.221v34.254H164.1Z" transform="translate(-15.207 -17.022)" fill="#5986cb"/>
    </g>
    <g id="Group_2" data-name="Group 2" transform="translate(11.667)">
      <path id="Path_19" data-name="Path 19" d="M503.99,22.391H399.618V6.738c0-3.721-3.435-6.738-7.674-6.738H127.735c-4.239,0-7.674,3.017-7.674,6.738V22.391H19.343c-4.185,0-7.676,3.073-7.676,6.739l0,176.814c0,3.721,3.435,6.738,7.674,6.738h100.72v49.2c0,3.721,3.435,6.738,7.674,6.738h23.42a22.032,22.032,0,0,0-2.907,8.362l-10.09,76.71a47.13,47.13,0,0,0-.4,6.488c0,17.3,10.018,31.541,24.508,42.5l25.548,19.313v31.276c0,3.721,3.435,6.738,7.674,6.738H219.1c4.239,0,7.674-3.017,7.674-6.738s-3.435-6.738-7.674-6.738H203.166V418.9a6.43,6.43,0,0,0-2.666-5.107l-25.2-19.051c-12.312-9.307-21.872-19.492-22.189-34.666a35.17,35.17,0,0,1,.3-4.837l10.09-76.711c.707-5.4,5.92-9.477,12.125-9.477a13.483,13.483,0,0,1,9.145,3.641,10.114,10.114,0,0,1,3.052,7.067V336.56c0,3.721,3.435,6.738,7.674,6.738s7.674-3.017,7.674-6.738V153.975c0-5.905,5.472-10.709,12.2-10.709,6.7,0,12.161,4.776,12.194,10.656,0,.017,0,.033,0,.05,0,.035.005.069.006.1v85.185c0,10.293,15.427,10.266,15.409.084,0-1.464-.009-5.77.029-6.887,1.369-13.707,27.538-13.381,27.538.7v10.208c0,8.691,15.348,8.691,15.348,0,0-5.914,5.479-10.725,12.215-10.725,7.628,0,15.354,2.9,15.354,10.726v6.639c0,8.6,15.173,8.747,15.347.119a8.559,8.559,0,0,1,.391-2.755c3.078-10.546,20.867-10.6,23.987-.052l9.469,32.024a119.7,119.7,0,0,1-.8,70.64l-21.454,67.091a5.951,5.951,0,0,0-.285,1.821v27.628H255.842c-4.239,0-7.674,3.017-7.674,6.738S251.6,460,255.842,460h91.939c4.239,0,7.674-3.017,7.674-6.738V419.824l21.168-66.2a131.6,131.6,0,0,0,.879-77.668l-2.17-7.341h16.616c4.239,0,7.674-3.017,7.674-6.738V63.2h96.7v136.01H428.024c-4.239,0-7.674,3.017-7.674,6.738s3.435,6.738,7.674,6.738h75.969c4.239,0,7.674-3.017,7.674-6.738V29.13h0c0-3.721-3.438-6.738-7.677-6.738ZM27.017,35.868h93.046V49.72H27.017Zm108.4-22.389H384.267V49.72H135.414ZM27.017,199.206V63.2h93.046v136.01Zm344.327,55.935-3.314-11.21c-4.846-16.372-27.908-23.465-43.4-13.378-8.4-11.766-28.088-15-41.3-7.612-6.846-12.928-26.183-17.717-40.423-11.429v-50.8h69.808c4.1,0,7.429,2.931,7.429,6.533v12.944c0,3.6-3.333,6.523-7.429,6.523h-42c-4.239,0-7.674,3.017-7.674,6.738s3.435,6.738,7.674,6.738h42c12.559,0,22.777-8.972,22.777-20V167.242c0-11.033-10.218-20.009-22.777-20.009h-70.9c-3.334-10.065-13.925-17.445-26.448-17.445-15.188,0-27.544,10.85-27.544,24.186V255.14H135.409V63.2H384.27V255.141ZM399.618,49.72V35.868h96.7V49.72Z" transform="translate(-11.667 0)"/>
      <path id="Path_20" data-name="Path 20" d="M297.7,28.036H210.732a7.5,7.5,0,1,0,0,15H297.7a7.5,7.5,0,0,0,0-15Z" transform="translate(-6.054)"/>
      <path id="Path_21" data-name="Path 21" d="M223.323,84.734H164.1a7.5,7.5,0,0,0-7.5,7.5v34.254a7.5,7.5,0,0,0,7.5,7.5h59.22a7.5,7.5,0,0,0,7.5-7.5V92.234a7.5,7.5,0,0,0-7.5-7.5Zm-7.5,34.254H171.6V99.734h44.22Z" transform="translate(-7.704 -9.522)"/>
      <path id="Path_22" data-name="Path 22" d="M413.357,124.727H457.91a7.5,7.5,0,0,0,0-15H413.357a7.5,7.5,0,0,0,0,15Z" transform="translate(-0.336 -11.48)"/>
      <path id="Path_23" data-name="Path 23" d="M457.91,156.991a7.5,7.5,0,0,0,0-15H413.357a7.5,7.5,0,0,0,0,15Z" transform="translate(-0.336 -14.856)"/>
      <path id="Path_24" data-name="Path 24" d="M49.439,124.727H93.991a7.5,7.5,0,0,0,0-15H49.439a7.5,7.5,0,1,0,0,15Z" transform="translate(-11.667 -11.48)"/>
      <path id="Path_25" data-name="Path 25" d="M93.991,141.991H49.439a7.5,7.5,0,0,0,0,15H93.991a7.5,7.5,0,0,0,0-15Z" transform="translate(-11.667 -14.856)"/>
      <path id="Path_26" data-name="Path 26" d="M340.159,101.861H260.6a7.5,7.5,0,0,0,0,15h79.564a7.5,7.5,0,0,0,0-15Z" transform="translate(-4.726 -10.657)"/>
    </g>
  </g>
</svg>
