<svg xmlns="http://www.w3.org/2000/svg" width="130" height="130" viewBox="0 0 130 130">
  <g id="avatar" transform="translate(0 -0.001)">
    <path id="Path_1" data-name="Path 1" d="M65,0a65,65,0,1,0,65,65A65,65,0,0,0,65,0Zm0,19.436a21.5,21.5,0,1,1-21.5,21.5A21.5,21.5,0,0,1,65,19.437Zm-.014,93.57a47.7,47.7,0,0,1-31.064-11.455,9.162,9.162,0,0,1-3.215-6.964A21.682,21.682,0,0,1,52.495,72.91H77.511A21.651,21.651,0,0,1,99.264,94.587a9.14,9.14,0,0,1-3.212,6.961A47.685,47.685,0,0,1,64.986,113.006Z" transform="translate(0 0)" fill="#fff"/>
  </g>
</svg>
