<svg id="about-main" xmlns="http://www.w3.org/2000/svg" width="1080" height="639.015" viewBox="0 0 1080 639.015">
  <path id="Path_103" data-name="Path 103" d="M345.467,477.129l-1.153-.26C376.272,335.527,516.76,246.854,658.1,278.812A262.383,262.383,0,0,1,856,476.169l-1.152.262c-27.208-119.463-131.908-202.9-254.612-202.9C479.14,273.536,371.994,359.159,345.467,477.129Z" transform="translate(-60 -130.493)" fill="#e6e6e6"/>
  <path id="Path_104" data-name="Path 104" d="M1140,744.493H60v-614H1140Zm-1078-2H1138v-610H62Z" transform="translate(-60 -130.493)" fill="#3f3d56"/>
  <circle id="Ellipse_12" data-name="Ellipse 12" cx="9" cy="9" r="9" transform="translate(65 54)" fill="#63a5ff"/>
  <circle id="Ellipse_13" data-name="Ellipse 13" cx="9" cy="9" r="9" transform="translate(92 54)" fill="#f2f2f2"/>
  <circle id="Ellipse_14" data-name="Ellipse 14" cx="9" cy="9" r="9" transform="translate(119 54)" fill="#f2f2f2"/>
  <path id="Path_107" data-name="Path 107" d="M1097,642.708v66.785h-71.119A86.746,86.746,0,0,1,1097,642.708Z" transform="translate(-60 -130.493)" fill="#1f92c5"/>
  <path id="Path_108" data-name="Path 108" d="M971.82,313.593l-.64-.77L731.79,511.353l-.77.64,165.87,200h2.6L733.84,512.253l237.08-196.61L1097,467.673v-3.14Z" transform="translate(-60 -130.493)" fill="#e6e6e6"/>
  <circle id="Ellipse_15" data-name="Ellipse 15" cx="61.692" cy="61.692" r="61.692" transform="translate(642.842 161.123)" fill="#ffb8b8"/>
  <path id="Path_111" data-name="Path 111" d="M867.086,483.471l-34.33,99.535v.009L816.211,631s-1.689,76.3-3.386,76.3c-.352,0-.853,1.1-1.416,2.832h-164.4l13.194-140.19-.809-6.532-10.32-83.731a41.962,41.962,0,0,1,27.729-44.72l17.245-6.063a136.524,136.524,0,0,1,70.51-5.376h0a136.524,136.524,0,0,1,57.609,25.653Z" transform="translate(-60 -130.493)" fill="#00b0ff"/>
  <path id="Path_113" data-name="Path 113" d="M818.033,303.605S798.446,261.167,760.9,270.96s-58.761,24.484-60.393,39.174.816,36.726.816,36.726,4.081-30.2,30.2-23.668,66.922,1.632,66.922,1.632l6.529,58.761s7.345-10.61,15.506-4.081S844.149,316.663,818.033,303.605Z" transform="translate(-60 -130.493)" fill="#2f2e41"/>
  <path id="Path_114" data-name="Path 114" d="M899.306,637.786s0,38.746-14.241,72.355H836.133l.431-1.135,13.564-59.355-5.084-20.345-12.288-46.293v-.009a135.33,135.33,0,0,1,1.086-73.281l.556-1.871a34.1,34.1,0,0,1,32.688-24.383h0s22.043,18.656,20.345,54.262Z" transform="translate(-60 -130.493)" fill="#00b0ff"/>
  <path id="Path_121" data-name="Path 121" d="M1040.39,252.532a33.376,33.376,0,1,1,33.376-33.376h0a33.376,33.376,0,0,1-33.376,33.376Zm0-65.2a31.824,31.824,0,1,0,31.824,31.824h0a31.824,31.824,0,0,0-31.824-31.824Z" transform="translate(-60 -130.493)" fill="#ccc"/>
  <path id="Path_123" data-name="Path 123" d="M1097,711.993H103v-549h994ZM104.841,710.2h990.318V164.781H104.841Z" transform="translate(-60 -130.493)" fill="#ccc"/>
  <path id="Path_122" data-name="Path 122" d="M1054.45,206.463l-.729-.729-13.554,13.555-13.555-13.555-.729.729,13.554,13.554-11.75,11.75.729.729,11.75-11.75,11.75,11.75.729-.729-11.75-11.75Z" transform="translate(-60 -130.493)" fill="#3f3d56"/>
  <path id="Path_146" data-name="Path 146" d="M475.826,477.939H136.952A11.969,11.969,0,0,0,125,489.891V620.659a11.969,11.969,0,0,0,11.952,11.957H475.826a11.969,11.969,0,0,0,11.952-11.952V489.891a11.969,11.969,0,0,0-11.952-11.952ZM486.372,620.66a10.559,10.559,0,0,1-10.546,10.546H136.952a10.559,10.559,0,0,1-10.546-10.546V489.891a10.559,10.559,0,0,1,10.546-10.546H475.826a10.559,10.559,0,0,1,10.546,10.546Z" transform="translate(-60 -130.493)" fill="#3f3d56"/>
  <path id="Path_141" data-name="Path 141" d="M456,515.938H278.481c-5.156,0-9.39,3.4-9.591,7.686a2.142,2.142,0,0,0-.015.314c.007,4.416,4.3,7.994,9.606,8H456c5.3,0,9.606-3.582,9.606-8S461.309,515.938,456,515.938Z" transform="translate(-60 -130.493)" fill="#1f92c5"/>
  <path id="Path_141-2" data-name="Path 141-2" d="M456,547.939H278.481c-5.156,0-9.39,3.4-9.591,7.686a2.142,2.142,0,0,0-.015.314c.007,4.416,4.3,7.994,9.606,8H456c5.3,0,9.606-3.582,9.606-8S461.308,547.939,456,547.939Z" transform="translate(-60 -130.493)" fill="#f29305"/>
  <path id="Path_141-3" data-name="Path 141-3" d="M456,579.939H278.481c-5.156,0-9.39,3.4-9.591,7.686a2.142,2.142,0,0,0-.015.314c.007,4.416,4.3,7.994,9.606,8H456c5.3,0,9.606-3.582,9.606-8S461.309,579.939,456,579.939Z" transform="translate(-60 -130.493)" fill="#1f92c5"/>
  <path id="Path_140" data-name="Path 140" d="M194.988,597.938a42.353,42.353,0,1,1,42.353-42.353A42.353,42.353,0,0,1,194.988,597.938Zm0-83.245a40.892,40.892,0,1,0,40.892,40.892h0A40.892,40.892,0,0,0,194.988,514.693Z" transform="translate(-60 -130.493)" fill="#3f3d56"/>
  <path id="Path_118" data-name="Path 118" d="M356,693.493H320v-36h36Zm-34-2h32v-32H322Z" transform="translate(-60 -130.493)" fill="#ff6584"/>
  <path id="Path_119" data-name="Path 119" d="M277.185,682.018,264.324,670.23l1.352-1.474,11.139,10.212,25.353-38.03,1.664,1.11Z" transform="translate(-60 -130.493)" fill="#3f3d56"/>
  <path id="Path_120" data-name="Path 120" d="M290,666.493v25H258v-32h25v-2H256v36h36v-27Z" transform="translate(-60 -130.493)" fill="#e5e5e5"/>
  <path id="Ellipse_18" data-name="Ellipse 18" d="M23.5,0A23.5,23.5,0,1,1,0,23.5,23.5,23.5,0,0,1,23.5,0Z" transform="translate(96 415)" fill="#f29305"/>
  <path id="Path_1" data-name="Path 1" d="M486.9,749.583a18.724,18.724,0,0,1,22.938-17.267l35.48-56.29,14.269,31.495-35.88,48.625a18.825,18.825,0,0,1-36.808-6.564Z" transform="translate(-60 -130.493)" fill="#ffb8b8"/>
  <path id="Path_115" data-name="Path 115" d="M672.177,441.361l-1.958.346c-22,3.885-40.648,18.9-48.351,39.872q-.347.943-.665,1.9L607.638,544.52,514.372,722.574,543.2,739.53s79.7-93.266,89.874-125.485l40.967-78.785A25.532,25.532,0,0,0,676.9,522.5l-3.071-79.8a1.413,1.413,0,0,0-1.657-1.338Z" transform="translate(-60 -130.493)" fill="#00b0ff"/>
</svg>
