<svg xmlns="http://www.w3.org/2000/svg" width="618.29" height="496.221" viewBox="0 0 618.29 496.221">
  <g id="offer" transform="translate(0)">
    <path id="Path_3" data-name="Path 3" d="M840.437,197.674H239.425a8.685,8.685,0,0,0-8.634,8.72v411.32a8.685,8.685,0,0,0,8.634,8.72H840.437a8.591,8.591,0,0,0,6.565-3.06,2.044,2.044,0,0,0,.188-.24,8.187,8.187,0,0,0,1.238-2.11,8.581,8.581,0,0,0,.653-3.31V206.394a8.687,8.687,0,0,0-8.644-8.72Zm6.179,420.04a6.219,6.219,0,0,1-1.02,3.42,6.4,6.4,0,0,1-2.337,2.12,6.075,6.075,0,0,1-2.822.69H239.425a6.207,6.207,0,0,1-6.169-6.23V206.394a6.207,6.207,0,0,1,6.169-6.23H840.437a6.209,6.209,0,0,1,6.179,6.231Z" transform="translate(-230.791 -197.674)" fill="#3f3d56"/>
    <rect id="Rectangle_1" data-name="Rectangle 1" width="615.797" height="2.493" transform="translate(1.243 34.949)" fill="#3f3d56"/>
    <circle id="Ellipse_1" data-name="Ellipse 1" cx="7.478" cy="7.478" r="7.478" transform="translate(14.953 11.218)" fill="#3f3d56"/>
    <circle id="Ellipse_2" data-name="Ellipse 2" cx="7.478" cy="7.478" r="7.478" transform="translate(36.454 11.218)" fill="#3f3d56"/>
    <circle id="Ellipse_3" data-name="Ellipse 3" cx="7.478" cy="7.478" r="7.478" transform="translate(57.954 11.218)" fill="#3f3d56"/>
    <path id="Path_4" data-name="Path 4" d="M633.6,373.035a20.174,20.174,0,1,1,20.174-20.174A20.174,20.174,0,0,1,633.6,373.035Zm0-38.436a18.262,18.262,0,1,0,18.262,18.262A18.262,18.262,0,0,0,633.6,334.6Z" transform="translate(-234.321 -199.604)" fill="#00b0ff"/>
    <path id="Path_395" data-name="Path 395" d="M631.7,360.192a1.993,1.993,0,0,1-1.2-.4l-.021-.016-4.517-3.455a2.007,2.007,0,0,1,2.442-3.186l2.925,2.243,6.913-9.019a2.006,2.006,0,0,1,2.813-.372h0l-.043.06.044-.06a2.009,2.009,0,0,1,.371,2.813L633.3,359.4a2.008,2.008,0,0,1-1.6.783Z" transform="translate(-234.304 -199.678)" fill="#00b0ff"/>
    <path id="Path_5" data-name="Path 5" d="M691.328,373.035A20.174,20.174,0,1,1,711.5,352.862a20.174,20.174,0,0,1-20.172,20.173Zm0-38.436a18.262,18.262,0,1,0,18.262,18.262A18.262,18.262,0,0,0,691.328,334.6Z" transform="translate(-234.853 -199.604)" fill="#e6e6e6"/>
    <path id="Path_6" data-name="Path 6" d="M698.59,359.841a1.293,1.293,0,0,1-1.826,0L691.923,355a.576.576,0,0,0-.814,0l-4.841,4.841a1.291,1.291,0,0,1-1.826-1.826l4.841-4.841a.576.576,0,0,0,0-.814l-4.841-4.841a1.291,1.291,0,0,1,1.826-1.826l4.841,4.841a.576.576,0,0,0,.814,0l4.841-4.841a1.291,1.291,0,1,1,1.826,1.826l-4.841,4.841a.576.576,0,0,0,0,.814l4.841,4.841a1.293,1.293,0,0,1,0,1.826Z" transform="translate(-234.819 -199.675)" fill="#e6e6e6"/>
    <path id="Path_7" data-name="Path 7" d="M633.6,437.085a20.174,20.174,0,1,1,20.174-20.174A20.174,20.174,0,0,1,633.6,437.085Zm0-38.436a18.262,18.262,0,1,0,18.262,18.262A18.262,18.262,0,0,0,633.6,398.649Z" transform="translate(-234.321 -200.52)" fill="#00b0ff"/>
    <path id="Path_395-2" data-name="Path 395" d="M631.7,424.242a1.993,1.993,0,0,1-1.2-.4l-.021-.016-4.517-3.455a2.007,2.007,0,0,1,2.442-3.186l2.925,2.243,6.913-9.019a2.006,2.006,0,0,1,2.813-.372h0l-.043.06.044-.06a2.009,2.009,0,0,1,.371,2.813l-8.131,10.6a2.007,2.007,0,0,1-1.6.783Z" transform="translate(-234.304 -200.545)" fill="#00b0ff"/>
    <path id="Path_8" data-name="Path 8" d="M691.328,437.085A20.174,20.174,0,1,1,711.5,416.912a20.174,20.174,0,0,1-20.172,20.173Zm0-38.436a18.262,18.262,0,1,0,18.262,18.262A18.262,18.262,0,0,0,691.328,398.649Z" transform="translate(-234.853 -200.52)" fill="#e6e6e6"/>
    <path id="Path_9" data-name="Path 9" d="M698.59,423.891a1.293,1.293,0,0,1-1.826,0l-4.841-4.841a.576.576,0,0,0-.814,0l-4.841,4.841a1.291,1.291,0,0,1-1.826-1.826l4.841-4.841a.576.576,0,0,0,0-.814l-4.841-4.841a1.291,1.291,0,1,1,1.826-1.826l4.841,4.841a.576.576,0,0,0,.814,0l4.841-4.841a1.291,1.291,0,1,1,1.826,1.826l-4.841,4.841a.576.576,0,0,0,0,.814l4.841,4.841A1.293,1.293,0,0,1,698.59,423.891Z" transform="translate(-234.819 -200.543)" fill="#e6e6e6"/>
    <path id="Path_10" data-name="Path 10" d="M633.6,501.134a20.174,20.174,0,1,1,20.174-20.174A20.174,20.174,0,0,1,633.6,501.134Zm0-38.436a18.262,18.262,0,1,0,18.262,18.262A18.262,18.262,0,0,0,633.6,462.7Z" transform="translate(-234.321 -201.435)" fill="#e6e6e6"/>
    <path id="Path_395-3" data-name="Path 395" d="M631.7,488.291a1.993,1.993,0,0,1-1.2-.4l-.021-.016-4.517-3.455a2.007,2.007,0,0,1,2.442-3.186l2.925,2.243,6.913-9.019a2.006,2.006,0,0,1,2.813-.372h0l-.043.06.044-.06a2.009,2.009,0,0,1,.371,2.813L633.3,487.5a2.007,2.007,0,0,1-1.6.783Z" transform="translate(-234.304 -201.412)" fill="#e6e6e6"/>
    <path id="Path_11" data-name="Path 11" d="M691.328,501.134A20.174,20.174,0,1,1,711.5,480.961a20.174,20.174,0,0,1-20.172,20.173Zm0-38.436A18.262,18.262,0,1,0,709.59,480.96,18.262,18.262,0,0,0,691.328,462.7Z" transform="translate(-234.853 -201.435)" fill="#e6e6e6"/>
    <path id="Path_12" data-name="Path 12" d="M698.59,487.94a1.293,1.293,0,0,1-1.826,0l-4.841-4.841a.576.576,0,0,0-.814,0l-4.841,4.841a1.291,1.291,0,0,1-1.826-1.826l4.841-4.841a.576.576,0,0,0,0-.814l-4.841-4.841a1.291,1.291,0,1,1,1.826-1.826l4.841,4.841a.576.576,0,0,0,.814,0l4.841-4.841a1.291,1.291,0,1,1,1.826,1.826l-4.841,4.841a.576.576,0,0,0,0,.814l4.841,4.841a1.293,1.293,0,0,1,0,1.826Z" transform="translate(-234.819 -201.411)" fill="#e6e6e6"/>
    <path id="Path_14" data-name="Path 14" d="M641.45,429.116a10.056,10.056,0,0,0,14.588-4.994l35.715,1.189-9.7-15.834-32.428,1.3a10.11,10.11,0,0,0-8.173,18.341Z" transform="translate(-234.619 -200.581)" fill="#ffb8b8"/>
    <path id="Path_15" data-name="Path 15" d="M842.824,506.476a10.056,10.056,0,0,0-2.363-15.237l7.425-34.955L830.6,463.063l-4.4,32.155a10.11,10.11,0,0,0,16.626,11.259Z" transform="translate(-236.951 -201.48)" fill="#ffb8b8"/>
    <path id="Path_16" data-name="Path 16" d="M528.369,490.974h-12.26l-5.832-47.288h18.094Z" transform="translate(-4.555 -6.637)" fill="#ffb8b8"/>
    <path id="Path_17" data-name="Path 17" d="M762.286,700.532H722.755v-.5a15.386,15.386,0,0,1,15.387-15.386h24.145Z" transform="translate(-235.323 -204.311)" fill="#2f2e41"/>
    <path id="Path_18" data-name="Path 18" d="M588.369,490.974h-12.26l-5.832-47.288h18.094Z" transform="translate(-6.16 -6.637)" fill="#ffb8b8"/>
    <path id="Path_19" data-name="Path 19" d="M822.286,700.532H782.755v-.5a15.386,15.386,0,0,1,15.387-15.386h24.145Z" transform="translate(-235.876 -204.311)" fill="#2f2e41"/>
    <path id="Path_20" data-name="Path 20" d="M760.437,663.956l-17.355-.694a4.514,4.514,0,0,1-4.318-4.634l4.889-160.379.319-.115c30.416-11,55.578-10.171,76.926,2.54l.239.143,2.929,156.2a4.5,4.5,0,0,1-4.5,4.585H804.934a4.51,4.51,0,0,1-4.416-3.632L780.583,556.563a1.5,1.5,0,0,0-2.961.109L765.084,660a4.525,4.525,0,0,1-4.469,3.957C760.556,663.959,760.5,663.958,760.437,663.956Z" transform="translate(-235.815 -204.311)" fill="#2f2e41"/>
    <circle id="Ellipse_4" data-name="Ellipse 4" cx="24.561" cy="24.561" r="24.561" transform="translate(517.089 109.191)" fill="#ffb8b8"/>
    <path id="Path_21" data-name="Path 21" d="M661.854,423.312a4.506,4.506,0,0,1,0-2.686l2.545-8.153a4.515,4.515,0,0,1,4.1-3.155l32.223-1.425L753,381.1a14.5,14.5,0,1,1,8.786,27.633l-32.039,18.58a46.373,46.373,0,0,1-32.2,5.4l-32.264-6.321a4.5,4.5,0,0,1-3-2.112,4.454,4.454,0,0,1-.428-.96Z" transform="translate(-235.23 -200.361)" fill="#ccc"/>
    <path id="Path_22" data-name="Path 22" d="M841.775,483.845a4.505,4.505,0,0,1-2.683.116l-8.255-2.195a4.515,4.515,0,0,1-3.326-3.959l-2.8-32.133-29-51.088a14.5,14.5,0,1,1,27.234-9.955l19.928,31.218a46.374,46.374,0,0,1,6.763,31.936l-4.941,32.5a4.488,4.488,0,0,1-2.922,3.555Z" transform="translate(-236.951 -200.651)" fill="#ccc"/>
    <path id="Path_23" data-name="Path 23" d="M750.456,376.658a41.822,41.822,0,0,1,33.537-13.56q.616.038,1.227.086h0a41.734,41.734,0,0,1,30.16,16.647,42.362,42.362,0,0,1,7.525,34.144,132.361,132.361,0,0,0,3.5,67.876l6.589,20.459a4.5,4.5,0,0,1-4.042,5.872l-33.685,1.811-8.62-14.89v15.353l-40.941,2.2c-.082,0-.163.007-.243.007a4.5,4.5,0,0,1-4.484-4.861l4.627-57.382-5.8-38.973a42.09,42.09,0,0,1,10.657-34.791Z" transform="translate(-236.951 -200.766)" fill="#ccc"/>
    <path id="Path_24" data-name="Path 24" d="M794.39,356.488c-2.274,1.308-11.263,2.176-11.9-.368l-.014-.056c-.446-1.864-.076-3.811.052-5.723s-.059-4.013-1.362-5.419c-2.428-2.621-6.748-1.232-10.258-1.894a8.664,8.664,0,0,1-6.74-9.253c.05-.4.128-.8.216-1.193a6.673,6.673,0,0,0-6.927-8.081c-3.548.2-7.378,1.278-10.314-1.35-2.27-2.032-2.824-7.322-1.827-10.2,1.676-4.838,12.414-7.371,17.1-8.764a40.62,40.62,0,0,1,34.43,5.65c2.961,2.087,5.727,4.71,6.989,8.106s.653,7.68-2.193,9.922a18.332,18.332,0,0,1,4.246,17.806C804.484,350.2,797.775,354.54,794.39,356.488Z" transform="translate(-235.69 -199.224)" fill="#2f2e41"/>
    <path id="Path_25" data-name="Path 25" d="M455.413,357.747H298.152a7.65,7.65,0,1,1,0-15.3H455.413a7.65,7.65,0,1,1,0,15.3Z" transform="translate(-230.791 -199.638)" fill="#1f92c5"/>
    <path id="Path_26" data-name="Path 26" d="M552.5,364.27h-270a1,1,0,0,1,0-2h270a1,1,0,0,1,0,2Z" transform="translate(-230.791 -199.848)" fill="#3f3d56"/>
    <path id="Path_27" data-name="Path 27" d="M455.413,421.8H298.152a7.65,7.65,0,1,1,0-15.3H455.413a7.65,7.65,0,1,1,0,15.3Z" transform="translate(-230.791 -200.507)" fill="#f29305"/>
    <path id="Path_28" data-name="Path 28" d="M552.5,428.319h-270a1,1,0,0,1,0-2h270a1,1,0,0,1,0,2Z" transform="translate(-230.791 -200.693)" fill="#3f3d56"/>
    <path id="Path_29" data-name="Path 29" d="M455.413,485.847H298.152a7.65,7.65,0,1,1,0-15.3H455.413a7.65,7.65,0,0,1,0,15.3Z" transform="translate(-230.791 -201.375)" fill="#f2f2f2"/>
    <path id="Path_30" data-name="Path 30" d="M552.5,492.369h-270a1,1,0,0,1,0-2h270a1,1,0,0,1,0,2Z" transform="translate(-230.791 -201.539)" fill="#3f3d56"/>
  </g>
</svg>
