<svg xmlns="http://www.w3.org/2000/svg" width="170.917" height="148.333" viewBox="0 0 170.917 148.333">
  <g id="premium" transform="translate(0 -56.521)">
    <path id="Path_1" data-name="Path 1" d="M159.675,77.19c-6.185,0-11.22,7.515-11.22,16.747a22.445,22.445,0,0,0,2.113,9.688l-36.087,34.16L89.536,81.813c4.174-2.44,7.144-8.472,7.144-15.551,0-9.232-5.035-16.741-11.225-16.741S74.229,57.03,74.229,66.262c0,7.092,2.975,13.11,7.15,15.551L56.186,138.341,20.33,103.648a22.532,22.532,0,0,0,2.12-9.71c0-9.232-5.035-16.747-11.225-16.747S0,84.705,0,93.938s5.035,16.741,11.225,16.741a7.864,7.864,0,0,0,3.356-.852l27.405,64.865a3.359,3.359,0,0,0,2.862,2.359h81.222a3.362,3.362,0,0,0,2.856-2.359l27.4-64.865a7.907,7.907,0,0,0,3.356.852c6.195,0,11.229-7.51,11.229-16.741S165.869,77.19,159.675,77.19ZM85.45,59.579c2.465,0,4.481,3,4.481,6.683s-2.012,6.677-4.481,6.677-4.477-2.985-4.477-6.677C80.969,62.586,82.981,59.579,85.45,59.579ZM6.74,93.938c0-3.682,2.008-6.683,4.477-6.683s4.477,3,4.477,6.683-2.008,6.677-4.477,6.677S6.74,97.629,6.74,93.938Zm117.45,73.05H46.7L28.24,123.311,55.3,149.494c1.558,1.5,3.631.858,4.648-1.442l25.495-57.2,25.226,56.61c1.024,2.279,3.071,2.941,4.621,1.468l27.537-26.069Zm35.485-66.366c-2.469,0-4.472-2.984-4.472-6.677s2-6.683,4.472-6.683,4.481,3,4.481,6.683S162.144,100.621,159.675,100.621Zm-29.962,92.2c0,2.771-1.512,5.032-3.374,5.032H44.557c-1.863,0-3.374-2.261-3.374-5.032s1.511-5.033,3.374-5.033h81.782C128.2,187.79,129.713,190.044,129.713,192.823Z" transform="translate(0 7)" fill="#fff"/>
  </g>
</svg>
