<svg xmlns="http://www.w3.org/2000/svg" width="130" height="130" viewBox="0 0 130 130">
  <g id="add" transform="translate(-1748 -915)">
    <rect id="Rectangle_44" data-name="Rectangle 44" width="130" height="130" transform="translate(1748 915)" fill="#fff"/>
    <g id="add_1_" data-name="add (1)" transform="translate(1773 940)">
      <g id="Group_17" data-name="Group 17">
        <g id="Group_16" data-name="Group 16">
          <path id="Path_156" data-name="Path 156" d="M40,0A40,40,0,1,0,80,40,40.044,40.044,0,0,0,40,0Zm0,73.8A33.8,33.8,0,1,1,73.8,40,33.843,33.843,0,0,1,40,73.8Z" fill="#7a766d"/>
        </g>
      </g>
      <g id="Group_19" data-name="Group 19" transform="translate(20 20)">
        <g id="Group_18" data-name="Group 18">
          <path id="Path_157" data-name="Path 157" d="M173.689,151.9H160.355V138.571a3.333,3.333,0,0,0-6.667,0V151.9H140.355a3.333,3.333,0,0,0,0,6.667h13.333V171.9a3.333,3.333,0,0,0,6.667,0V158.571h13.333a3.333,3.333,0,0,0,0-6.667Z" transform="translate(-137.022 -135.238)" fill="#7a766d"/>
        </g>
      </g>
    </g>
  </g>
</svg>
