<svg xmlns="http://www.w3.org/2000/svg" width="150" height="150" viewBox="0 0 150 150">
  <path id="calendar" d="M49.554,84.375H36.161a3.8,3.8,0,0,1-4.018-3.516V69.141a3.8,3.8,0,0,1,4.018-3.516H49.554a3.8,3.8,0,0,1,4.018,3.516V80.859A3.8,3.8,0,0,1,49.554,84.375Zm36.161-3.516V69.141A3.8,3.8,0,0,0,81.7,65.625H68.3a3.8,3.8,0,0,0-4.018,3.516V80.859A3.8,3.8,0,0,0,68.3,84.375H81.7A3.8,3.8,0,0,0,85.714,80.859Zm32.143,0V69.141a3.8,3.8,0,0,0-4.018-3.516H100.446a3.8,3.8,0,0,0-4.018,3.516V80.859a3.8,3.8,0,0,0,4.018,3.516h13.393A3.8,3.8,0,0,0,117.857,80.859ZM85.714,108.984V97.266A3.8,3.8,0,0,0,81.7,93.75H68.3a3.8,3.8,0,0,0-4.018,3.516v11.719A3.8,3.8,0,0,0,68.3,112.5H81.7A3.8,3.8,0,0,0,85.714,108.984Zm-32.143,0V97.266a3.8,3.8,0,0,0-4.018-3.516H36.161a3.8,3.8,0,0,0-4.018,3.516v11.719a3.8,3.8,0,0,0,4.018,3.516H49.554A3.8,3.8,0,0,0,53.571,108.984Zm64.286,0V97.266a3.8,3.8,0,0,0-4.018-3.516H100.446a3.8,3.8,0,0,0-4.018,3.516v11.719a3.8,3.8,0,0,0,4.018,3.516h13.393A3.8,3.8,0,0,0,117.857,108.984ZM150,32.813V135.938C150,143.7,142.8,150,133.929,150H16.071C7.2,150,0,143.7,0,135.938V32.813C0,25.049,7.2,18.75,16.071,18.75H32.143V3.516A3.8,3.8,0,0,1,36.161,0H49.554a3.8,3.8,0,0,1,4.018,3.516V18.75H96.429V3.516A3.8,3.8,0,0,1,100.446,0h13.393a3.8,3.8,0,0,1,4.018,3.516V18.75h16.071C142.8,18.75,150,25.049,150,32.813ZM133.929,134.18v-87.3H16.071v87.3a1.9,1.9,0,0,0,2.009,1.758H131.92A1.9,1.9,0,0,0,133.929,134.18Z" fill="#1f92c5"/>
</svg>
