<svg xmlns="http://www.w3.org/2000/svg" width="140" height="148.667" viewBox="0 0 140 148.667">
  <g id="free" transform="translate(-32.357 -23.749)">
    <path id="Path_8" data-name="Path 8" d="M171.544,24.888a3.746,3.746,0,0,0-3.807-.974L34.753,64.164a3.289,3.289,0,0,0-2.345,2.468A3.028,3.028,0,0,0,33.7,69.671L67.726,93.876V116.6a3.16,3.16,0,0,0,1.966,2.853,3.808,3.808,0,0,0,3.694-.349l14.978-10.554,21.347,15.185a3.791,3.791,0,0,0,2.871.613,3.5,3.5,0,0,0,2.373-1.586L171.93,28.44a2.938,2.938,0,0,0-.387-3.552Zm-22.549,11.4L71.3,88.342,43.147,68.318ZM74.74,110.111V98.865l7.943,5.65Zm36.053,6.322L77.014,92.409l19.41-13,61.709-41.347Z" fill="#fff"/>
    <path id="Path_9" data-name="Path 9" d="M31.706,96.6a2.953,2.953,0,0,0-3.738,2.006c-.758,2.466-1.468,5.094-2.107,7.81a3.107,3.107,0,0,0,2.18,3.746,2.969,2.969,0,0,0,3.6-2.27c.608-2.578,1.279-5.067,1.995-7.4a3.21,3.21,0,0,0-.189-2.362,3.007,3.007,0,0,0-1.738-1.53Z" transform="translate(12 62.165)" fill="#fff"/>
    <path id="Path_10" data-name="Path 10" d="M56.563,85.08a16.177,16.177,0,0,0-10.637.548,28.063,28.063,0,0,1,4.727-10.3,2.742,2.742,0,0,0-.462-3.869,2.785,2.785,0,0,0-3.895.46c-.316.4-6.242,7.988-6.327,17.216a39.533,39.533,0,0,0-10.03,13.117,2.748,2.748,0,0,0,1.226,3.7,2.783,2.783,0,0,0,3.727-1.218,38.154,38.154,0,0,1,6.1-8.975q.185.553.407,1.1a13.6,13.6,0,0,0,13.965,8.91,10.553,10.553,0,0,0,9.33-9.575C65.341,91.32,62,86.744,56.563,85.08Zm2.632,10.4a5.107,5.107,0,0,1-4.521,4.826,8.051,8.051,0,0,1-8.124-5.49A13.925,13.925,0,0,1,45.73,91.9a11.55,11.55,0,0,1,9.2-1.56C57.728,91.2,59.482,93.318,59.2,95.481Z" transform="translate(12 48.165)" fill="#fff"/>
  </g>
</svg>
