<svg xmlns="http://www.w3.org/2000/svg" width="765.84" height="536.777" viewBox="0 0 765.84 536.777">
  <g id="undraw_Spreadsheet_re_cn18_1_" data-name="undraw_Spreadsheet_re_cn18 (1)" transform="translate(0 0)">
    <path id="Path_16" data-name="Path 16" d="M975.748,531.162H445.253a7.18,7.18,0,0,1-7.172-7.172V195.42H982.92V523.99a7.18,7.18,0,0,1-7.172,7.172Z" transform="translate(-217.08 -181.612)" fill="#e6e6e6"/>
    <path id="Path_17" data-name="Path 17" d="M960.192,510.629H460.809a7.258,7.258,0,0,1-7.25-7.25V232.79a7.258,7.258,0,0,1,7.25-7.25H960.192a7.258,7.258,0,0,1,7.25,7.25V503.379a7.258,7.258,0,0,1-7.25,7.25Z" transform="translate(-217.08 -181.612)" fill="#fff"/>
    <path id="Path_18" data-name="Path 18" d="M982.687,205.566H437.849V188.784a7.18,7.18,0,0,1,7.172-7.172H975.515a7.18,7.18,0,0,1,7.172,7.172Z" transform="translate(-217.08 -181.612)" fill="#1f92c5"/>
    <circle id="Ellipse_5" data-name="Ellipse 5" cx="4.283" cy="4.283" r="4.283" transform="translate(234.082 7.954)" fill="#fff"/>
    <circle id="Ellipse_6" data-name="Ellipse 6" cx="4.283" cy="4.283" r="4.283" transform="translate(250.34 7.954)" fill="#fff"/>
    <circle id="Ellipse_7" data-name="Ellipse 7" cx="4.283" cy="4.283" r="4.283" transform="translate(266.599 7.954)" fill="#fff"/>
    <rect id="Rectangle_10" data-name="Rectangle 10" width="51.47" height="22.782" transform="translate(287.803 92.449)" fill="#e6e6e6"/>
    <rect id="Rectangle_11" data-name="Rectangle 11" width="51.47" height="22.782" transform="translate(390.742 139.7)" fill="#e6e6e6"/>
    <rect id="Rectangle_12" data-name="Rectangle 12" width="51.47" height="22.782" transform="translate(287.803 210.576)" fill="#f29305"/>
    <rect id="Rectangle_13" data-name="Rectangle 13" width="51.47" height="22.782" transform="translate(390.742 257.826)" fill="#1f92c5"/>
    <rect id="Rectangle_14" data-name="Rectangle 14" width="51.47" height="22.782" transform="translate(647.246 281.452)" fill="#f29305"/>
    <rect id="Rectangle_15" data-name="Rectangle 15" width="51.47" height="22.782" transform="translate(595.776 186.95)" fill="#e6e6e6"/>
    <rect id="Rectangle_16" data-name="Rectangle 16" width="102.939" height="22.782" transform="translate(442.212 186.95)" fill="#1f92c5"/>
    <rect id="Rectangle_17" data-name="Rectangle 17" width="102.939" height="22.782" transform="translate(442.212 67.98)" fill="#f29305"/>
    <path id="Path_19" data-name="Path 19" d="M453.414,225.122V511.158h514.7V225.122Zm513.008,23.7H916.809V226.81h49.613ZM660.3,414.688V392.68H761.218v22.008Zm100.914,1.688v22.007H660.3V416.375Zm0-94.782V343.6H660.3V321.593ZM660.3,319.906V297.9H761.218v22.008Zm0,47.391V345.288H761.218V367.3Zm100.914,1.688v22.008H660.3V368.984ZM658.617,343.6H609V321.593h49.613Zm0,1.688V367.3H609V345.288Zm0,23.7v22.008H609V368.984Zm0,23.7v22.008H609V392.68Zm104.289,0h49.613v22.008H762.906Zm0-1.688V368.984h49.613v22.008Zm0-23.7V345.288h49.613V367.3Zm0-23.7V321.593h49.613V343.6Zm0-23.7V297.9h49.613v22.008Zm0-23.7V274.2h49.613v22.008Zm-1.687,0H660.3V274.2H761.218Zm-102.6,0H609V274.2h49.613Zm0,1.688v22.008H609V297.9Zm-51.3,22.008H557.7V297.9h49.614Zm0,1.688V343.6H557.7V321.593Zm0,23.7V367.3H557.7V345.288Zm0,23.7v22.008H557.7V368.984Zm0,23.7v22.008H557.7V392.68Zm0,23.7v22.007H557.7V416.375Zm1.688,0h49.613v22.007H609Zm49.613,23.7v22.008H609V440.071Zm1.688,0H761.218v22.008H660.3Zm102.6,0h49.613v22.008H762.906Zm0-1.688V416.375h49.613v22.008Zm51.3-22.008H863.82v22.007H814.206Zm0-1.688V392.68H863.82v22.008Zm0-23.7V368.984H863.82v22.008Zm0-23.7V345.288H863.82V367.3Zm0-23.7V321.593H863.82V343.6Zm0-23.7V297.9H863.82v22.008Zm0-23.7V274.2H863.82v22.008Zm0-23.7V250.506H863.82v22.008Zm-1.687,0H762.906V250.506h49.613Zm-51.3,0H660.3V250.506H761.218Zm-102.6,0H609V250.506h49.613Zm-51.3,0H557.7V250.506h49.614Zm0,1.688V296.21H557.7V274.2Zm-51.3,22.008H506.4V274.2h49.613Zm0,1.688v22.008H506.4V297.9Zm0,23.7V343.6H506.4V321.593Zm0,23.7V367.3H506.4V345.288Zm0,23.7v22.008H506.4V368.984Zm0,23.7v22.008H506.4V392.68Zm0,23.7v22.007H506.4V416.375Zm0,23.7v22.008H506.4V440.071Zm1.688,0h49.614v22.008H557.7Zm49.614,23.7v22.008H557.7V463.766Zm1.688,0h49.613v22.008H609Zm51.3,0H761.218v22.008H660.3Zm102.6,0h49.613v22.008H762.906Zm51.3,0H863.82v22.008H814.206Zm0-1.688V440.071H863.82v22.008Zm51.3-22.008h49.613v22.008H865.508Zm0-1.688V416.375h49.613v22.008Zm0-23.7V392.68h49.613v22.008Zm0-23.7V368.984h49.613v22.008Zm0-23.7V345.288h49.613V367.3Zm0-23.7V321.593h49.613V343.6Zm0-23.7V297.9h49.613v22.008Zm0-23.7V274.2h49.613v22.008Zm0-23.7V250.506h49.613v22.008Zm0-23.7V226.81h49.613v22.008Zm-1.687,0H814.206V226.81H863.82Zm-51.3,0H762.906V226.81h49.613Zm-51.3,0H660.3V226.81H761.218Zm-102.6,0H609V226.81h49.613Zm-51.3,0H557.7V226.81h49.614Zm-51.3,0H506.4V226.81h49.613Zm0,1.688v22.008H506.4V250.506Zm-51.3,22.008H455.1V250.506h49.613Zm0,1.688V296.21H455.1V274.2Zm0,23.7v22.008H455.1V297.9Zm0,23.7V343.6H455.1V321.593Zm0,23.7V367.3H455.1V345.288Zm0,23.7v22.008H455.1V368.984Zm0,23.7v22.008H455.1V392.68Zm0,23.7v22.008H455.1V416.375Zm0,23.7v22.008H455.1V440.071Zm0,23.7v22.009H455.1V463.766Zm1.688,0h49.613v22.009H506.4Zm49.613,23.7V509.47H506.4V487.463Zm1.688,0h49.614V509.47H557.7Zm51.3,0h49.613V509.47H609Zm51.3,0H761.218V509.47H660.3Zm102.6,0h49.613V509.47H762.906Zm51.3,0H863.82V509.47H814.206Zm51.3,0h49.613V509.47H865.508Zm0-1.688V463.766h49.613v22.009Zm51.3-22.009h49.613v22.009H916.809Zm0-1.688V440.071h49.613v22.008Zm0-23.7V416.375h49.613v22.008Zm0-23.7V392.68h49.613v22.008Zm0-23.7V368.984h49.613v22.008Zm0-23.7V345.288h49.613V367.3Zm0-23.7V321.593h49.613V343.6Zm0-23.7V297.9h49.613v22.008Zm0-23.7V274.2h49.613v22.008Zm0-23.7V250.506h49.613v22.008Zm-412.094-45.7v22.008H455.1V226.81ZM455.1,487.463h49.613V509.47H455.1Zm461.707,22.008V487.463h49.613V509.47Z" transform="translate(-217.08 -181.612)" fill="#e6e6e6"/>
    <path id="Path_20" data-name="Path 20" d="M313.306,380.1s-26.038-6-40.359,5,18.227,36,18.227,36Z" transform="translate(-217.08 -181.612)" fill="#2f2e41"/>
    <path id="Path_21" data-name="Path 21" d="M340.233,523.587a10.056,10.056,0,0,1,7.54-13.45l5.262-35.345,13.828,12.394-7.117,31.664a10.11,10.11,0,0,1-19.513,4.737Z" transform="translate(-217.08 -181.612)" fill="#ffb8b8"/>
    <path id="Path_22" data-name="Path 22" d="M68.648,525.464l12.233-.812,2.69-47.57-18.054,1.2Z" fill="#ffb8b8"/>
    <path id="Path_23" data-name="Path 23" d="M283.326,702.463h38.531V717.35H298.213a14.887,14.887,0,0,1-14.887-14.887h0Z" transform="translate(388.102 1238.201) rotate(180)" fill="#2f2e41"/>
    <path id="Path_24" data-name="Path 24" d="M89.789,508.53l11.5,4.245,21.849-42.342-16.975-6.265Z" fill="#ffb8b8"/>
    <path id="Path_25" data-name="Path 25" d="M301.848,692.156h38.531v14.887H316.735a14.887,14.887,0,0,1-14.887-14.887h0Z" transform="translate(163.015 1285.5) rotate(-159.739)" fill="#2f2e41"/>
    <path id="Path_26" data-name="Path 26" d="M340.311,507.391s12.389,6.671,8.577,33.354L345.076,641.76l-21.059,46.049-18.106-4.765,11.53-37.473-15.247-65.755-2,119.428L283.039,702.1,258.356,503.579,289.8,489.285Z" transform="translate(-217.08 -181.612)" fill="#2f2e41"/>
    <circle id="Ellipse_8" data-name="Ellipse 8" cx="24.561" cy="24.561" r="24.561" transform="translate(54.389 138.033)" fill="#ffb8b8"/>
    <path id="Path_27" data-name="Path 27" d="M310.293,375.4,297.9,395.417,279.8,377.311l-33.85,23.695a6.4,6.4,0,0,0-2.273,7.643c5.207,12.875,18.541,50.933,14.681,94.93,0,0,25.73-6.671,52.413.953s33.354,4.765,33.354,4.765-6.671-48.6-2.859-59.084c3.162-8.7,9.6-37.717,11.707-47.361a4.347,4.347,0,0,0-2.127-4.721Z" transform="translate(-217.08 -181.612)" fill="#1f92c5"/>
    <path id="Path_28" data-name="Path 28" d="M349.862,398.247h0a4.355,4.355,0,0,1,4.813,3.149l16.132,58.253-3.812,35.26-18.106-2.859,1.906-24.777-13.342-31.448,8.807-34.348a4.355,4.355,0,0,1,3.6-3.229Z" transform="translate(-217.08 -181.612)" fill="#1f92c5"/>
    <path id="Path_29" data-name="Path 29" d="M277.038,309.728a17.506,17.506,0,0,1,16.141-8.588,34.306,34.306,0,0,1,9.755,2.731l16.056,6.263c4.155,1.621,8.7,3.606,10.508,7.685,1.673,3.786.425,8.158-.839,12.1l-6.007,18.736a57.028,57.028,0,0,0-3.4-12.376c-1.745-3.917-4.5-7.529-8.32-9.487-4.171-2.139-9.086-2.1-13.768-1.87-6.631.319-13.84,1.163-18.552,5.84a19.269,19.269,0,0,0-4.889,9.549,57.48,57.48,0,0,0-1.025,10.809,89.614,89.614,0,0,1-6.843-14.672,36.3,36.3,0,0,1-2.543-11.876,16.7,16.7,0,0,1,3.828-11.3c2.713-3.032,7.132-4.668,11.019-3.468" transform="translate(-217.08 -181.612)" fill="#2f2e41"/>
    <path id="Path_30" data-name="Path 30" d="M263.379,537.587a10.056,10.056,0,0,0-7.54-13.45l-5.262-35.345-13.828,12.394,7.117,31.664a10.11,10.11,0,0,0,19.513,4.737Z" transform="translate(-217.08 -181.612)" fill="#ffb8b8"/>
    <path id="Path_31" data-name="Path 31" d="M246.295,400.669h0a6.413,6.413,0,0,0-5.351,6.006l-5.46,109.2H255.5l6.671-58.131-8.489-51.786a6.413,6.413,0,0,0-7.383-5.289Z" transform="translate(-217.08 -181.612)" fill="#1f92c5"/>
    <path id="Path_32" data-name="Path 32" d="M171.738,536.777H0v-2.106H172.12Z" fill="#ccc"/>
  </g>
</svg>
