<svg xmlns="http://www.w3.org/2000/svg" width="150" height="150" viewBox="0 0 150 150">
  <path id="kontakt" d="M145.721,106,112.909,91.939a7.031,7.031,0,0,0-8.2,2.022L90.174,111.715A108.593,108.593,0,0,1,38.262,59.8L56.016,45.272a7.014,7.014,0,0,0,2.022-8.2L43.975,4.256A7.078,7.078,0,0,0,35.918.183L5.449,7.215A7.031,7.031,0,0,0,0,14.067,135.924,135.924,0,0,0,135.939,150.006a7.031,7.031,0,0,0,6.856-5.449l7.031-30.469a7.116,7.116,0,0,0-4.1-8.086Z" transform="translate(0 -0.006)" fill="#1f92c5"/>
</svg>
