<svg xmlns="http://www.w3.org/2000/svg" width="120" height="100" viewBox="0 0 120 100">
  <g id="mail" transform="translate(0 -80.609)">
    <g id="Group_27" data-name="Group 27" transform="translate(0 80.609)">
      <path id="Path_1586" data-name="Path 1586" d="M109.453,80.609H10.547C4.731,80.609,0,86.364,0,93.437v74.343c0,7.074,4.731,12.828,10.547,12.828h98.906c5.816,0,10.547-5.755,10.547-12.828V93.437C120,86.364,115.269,80.609,109.453,80.609Zm-1.376,8.552-1.408,1.426-42.484,43.03a5.675,5.675,0,0,1-8.369,0L13.331,90.587l-1.408-1.426ZM7.031,95.336,41.647,130.4,7.031,158.416Zm102.422,76.721H10.547A3.775,3.775,0,0,1,7.1,168.633l40.182-32.528,4.032,4.084a11.776,11.776,0,0,0,17.368,0l4.032-4.084L112.9,168.632A3.775,3.775,0,0,1,109.453,172.057Zm3.516-13.64L78.353,130.4l34.615-35.06Z" transform="translate(0 -80.609)" fill="#787878"/>
    </g>
  </g>
</svg>
