<svg xmlns="http://www.w3.org/2000/svg" width="150" height="150" viewBox="0 0 150 150">
  <g id="my_profile" transform="translate(-26 59)">
    <path id="Path_1" data-name="Path 1" d="M75,0a75,75,0,1,0,75,75A75,75,0,0,0,75,0Zm0,22.426A24.808,24.808,0,1,1,50.192,47.234,24.808,24.808,0,0,1,75,22.426Zm-.016,107.965a55.039,55.039,0,0,1-35.843-13.217,10.572,10.572,0,0,1-3.71-8.035,25.018,25.018,0,0,1,25.14-25.012H89.436a24.982,24.982,0,0,1,25.1,25.012,10.546,10.546,0,0,1-3.706,8.032A55.021,55.021,0,0,1,74.984,130.392Z" transform="translate(26 -59)" fill="#1f92c5"/>
  </g>
</svg>
