<svg id="neww" xmlns="http://www.w3.org/2000/svg" xmlns:xlink="http://www.w3.org/1999/xlink" width="1017.172" height="786" viewBox="0 0 1017.172 786">
  <defs>
    <linearGradient id="linear-gradient" x1="0.5" x2="0.5" y2="1" gradientUnits="objectBoundingBox">
      <stop offset="0" stop-color="#040fd9"/>
      <stop offset="1" stop-color="#00b0ff"/>
    </linearGradient>
  </defs>
  <g id="undraw_personal_information_962o" transform="translate(0 94.301)">
    <path id="Path_192" data-name="Path 192" d="M1148,500c0,163.89-119.49,299.89-276.1,325.62A332.451,332.451,0,0,1,818,830c-182.34,0-330.077-147.8-330-330.07C488,317.75,635.75,170,818,170a328.485,328.485,0,0,1,192.01,61.6C1093.56,291.46,1148,389.37,1148,500Z" transform="translate(-130.828 -138.301)" fill="url(#linear-gradient)"/>
    <path id="Path_193" data-name="Path 193" d="M1047.07,179.894l28.66-8.936,2.473-25.242s-69.708-26.332-91.994,20.244c-7.869,16.445-17.786,26.322-27.325,32.218-13.138,8.122-29.333,9.075-43.841,3.776-48.311-17.644-59.688,32.531-59.688,32.531s4.176,7.142,33.956,8.9c14.82.874,26.947,12.027,35.391,23.011,18.081,23.521,55.22,16.723,64.339-11.508q.22-.683.434-1.382c14.246-46.667,79.1-9.511,79.1-9.511l4.14-42.268Z" transform="translate(-130.828 -138.301)" fill="#f29305"/>
    <ellipse id="Ellipse_36" data-name="Ellipse 36" cx="35.103" cy="35.103" rx="35.103" ry="35.103" transform="translate(685.853 85.618)" fill="#f29305"/>
    <ellipse id="Ellipse_37" data-name="Ellipse 37" cx="93.607" cy="93.608" rx="93.607" ry="93.608" transform="translate(609.797 120.721)" fill="#f29305"/>
    <ellipse id="Ellipse_38" data-name="Ellipse 38" cx="64.355" cy="64.355" rx="64.355" ry="64.355" transform="translate(636.124 184.101)" fill="#ffdbcb"/>
    <path id="Path_194" data-name="Path 194" d="M805.955,435.511l11.7,62.4,58.5-7.8s-9.751-48.754-3.9-62.4Z" transform="translate(-130.828 -138.301)" fill="#ffdbcb"/>
    <path id="Path_195" data-name="Path 195" d="M517.332,677.331s-66.305-39-72.156-11.7,66.306,39,66.306,39Z" transform="translate(-130.828 -138.301)" fill="#ffdbcb"/>
    <path id="Path_196" data-name="Path 196" d="M921.014,299s-46.8-35.1-66.305-21.452,52.654,58.5,60.455,54.6S921.014,299,921.014,299Z" transform="translate(-130.828 -138.301)" fill="#ffdbcb"/>
    <path id="Path_197" data-name="Path 197" d="M876.161,456.963l-70.206,11.7v31.2s-66.305,21.452-66.305,31.2-17.551,46.8-17.551,46.8-42.9,31.2-7.8,68.255c0,0,13.651,21.452,3.9,23.4s-31.2,7.8-21.452,15.6,156.012,60.455,167.713,56.555S965.868,599.325,965.868,564.222s-37.053-85.807-37.053-85.807l-42.9-5.85Z" transform="translate(-130.828 -138.301)" fill="#ccc"/>
    <path id="Path_198" data-name="Path 198" d="M745.5,529.119s-27.3-3.9-37.053,29.252-42.9,140.411-42.9,140.411-118.96-1.95-150.162-31.2L501.73,712.433s179.414,64.355,195.016,52.654S780.6,564.222,780.6,564.222Z" transform="translate(-130.828 -138.301)" fill="#ccc"/>
    <path id="Path_199" data-name="Path 199" d="M922.965,484.265l5.85-5.85s74.106-79.956,72.156-99.458c0,0-39-48.754-87.757-35.1,0,0-21.452-52.654,11.7-50.7s156.015-5.851,154.065,50.7S960.018,573.973,960.018,573.973Z" transform="translate(-130.828 -138.301)" fill="#ccc"/>
    <path id="Path_200" data-name="Path 200" d="M871.9,825.62A332.451,332.451,0,0,1,818,830a328.467,328.467,0,0,1-163.57-43.33l11.59-23.47,36.89-74.76,1.64-3.31,26.87,8.1,134.99,40.66.37,6.23Z" transform="translate(-130.828 -138.301)" fill="#021720"/>
    <path id="Path_203" data-name="Path 203" d="M40.953,0C63.571,0,81.907,28.813,81.907,64.355s-18.335,64.355-40.953,64.355S0,99.9,0,64.355,18.335,0,40.953,0Z" transform="translate(629.29 216.765) rotate(-71.208)" fill="#f29305"/>
    <path id="Path_201" data-name="Path 201" d="M364.484,367.592c-14.241,35.4-48.349,57.808-76.251,37.607-12.559-9.093-22.542-25.178-25.712-44.19-3.682-22.085,4.072-43.142,12.072-61.7,4.342-10.07,9.1-19.936,12.693-30.559,3.721-11,6.38-23.714,3.578-35.681-2.524-10.781-8.845-18.623-15.77-24.385a105.494,105.494,0,0,0-24.232-14.675,108.1,108.1,0,0,0-54.1-9.495,112.757,112.757,0,0,0-26.963,5.913c-9.4,3.25-18.619,7.37-28.032,10.541-15.716,5.3-33.635,7.928-48.537-2.713-14.477-10.337-20.957-31.957-22.961-52.99-3.7-38.837,7.651-79.142,28.147-106.341,9.833-13.049,22.207-23.829,35.685-28.24,11.76-3.849,26.86-3.6,36.217,8.323,10.443,13.309,7.991,34.652-.308,48.694-10.587,17.916-28.522,22.22-44.526,22.656-18.206.5-36.395-3.182-54.59-.9a66.414,66.414,0,0,0-25.816,8.448,68.557,68.557,0,0,0-19.455,17.86c-11.233,14.8-18.8,34.528-22.577,55.035-4.536,24.661-3.547,50.578-.026,75.347q2.815,19.159,7.238,37.785c1.216,5.231,7.3,3,6.079-2.274C5.493,235.02-.553,181.083,20.4,137.773c8.67-18.367,22.178-31.557,37.769-36.881,18.133-6.114,37.161-3.091,55.6-2.182,17.529.865,36.774-.068,51.8-13.918,12.327-11.36,20.948-32.966,17.222-53.365C179.195,11.756,165.259,1.782,151.322.241c-14.624-1.617-29.014,5.042-41.3,15.453C84.479,37.352,67.492,75.439,63.937,115.82c-1.853,21.042.032,43.706,7.066,62.8,3.706,10.339,9.475,19.06,16.652,25.175a45.2,45.2,0,0,0,23.722,9.917c18.859,2.356,36.98-6.427,54.869-13.147a117.344,117.344,0,0,1,27.981-7.245,103.249,103.249,0,0,1,27.606.61,106.369,106.369,0,0,1,26.75,8.053,96.524,96.524,0,0,1,24.281,14.892c6.709,5.82,12.512,14.156,12.841,25.509.358,12.317-4.22,23.839-8.575,34.224-8.6,20.513-19.226,40.579-21.472,64.593-1.965,21.006,4.266,41.712,15.025,56.694,10.9,15.374,26.032,23.889,41.755,23.5,15.965-.62,31.251-10.037,42.993-24.5a97.487,97.487,0,0,0,14.5-24.989c1.945-4.833-3.5-9.155-5.444-4.317Z" transform="matrix(-0.839, -0.545, 0.545, -0.839, 310.593, 614.654)" fill="#f29305"/>
  </g>
  <path id="Path_202" data-name="Path 202" d="M251,104a43.8,43.8,0,0,0-23.1,81c.127.079.262.147.39.225a23.993,23.993,0,0,1,45.415,0c.128-.078.263-.146.39-.225A43.8,43.8,0,0,0,251,104Zm0,60.746a15.54,15.54,0,1,1,15.54-15.54A15.54,15.54,0,0,1,251,164.746Z" transform="translate(-118.828 -104)" fill="#f29305"/>
  <ellipse id="Ellipse_40" data-name="Ellipse 40" cx="8" cy="8" rx="8" ry="8" transform="translate(49.172 120)" fill="#f29305"/>
  <ellipse id="Ellipse_41" data-name="Ellipse 41" cx="8" cy="8" rx="8" ry="8" transform="translate(49.172 156)" fill="#f29305"/>
  <ellipse id="Ellipse_42" data-name="Ellipse 42" cx="8" cy="8" rx="8" ry="8" transform="translate(49.172 192)" fill="#f29305"/>
  <ellipse id="Ellipse_43" data-name="Ellipse 43" cx="8" cy="8" rx="8" ry="8" transform="translate(49.172 228)" fill="#f29305"/>
  <rect id="Rectangle_28" data-name="Rectangle 28" width="106" height="16" rx="8" transform="translate(79.172 192)" fill="#f29305"/>
  <rect id="Rectangle_29" data-name="Rectangle 29" width="106" height="16" rx="8" transform="translate(79.172 228)" fill="#f29305"/>
  <rect id="Rectangle_30" data-name="Rectangle 30" width="106" height="16" rx="8" transform="translate(79.172 156)" fill="#f29305"/>
  <rect id="Rectangle_31" data-name="Rectangle 31" width="106" height="16" rx="8" transform="translate(79.172 120)" fill="#f29305"/>
</svg>
