<svg xmlns="http://www.w3.org/2000/svg" width="500" height="460" viewBox="0 0 500 460">
  <g id="notpaid" transform="translate(0 -39.612)">
    <g id="Group_4" data-name="Group 4" transform="translate(0 39.612)">
      <g id="Group_3" data-name="Group 3">
        <path id="Path_33" data-name="Path 33" d="M253.908,78.017H54.584a7.511,7.511,0,0,0,0,15.022H253.908a7.511,7.511,0,1,0,0-15.022Z" transform="translate(0 -39.612)"/>
        <path id="Path_34" data-name="Path 34" d="M432.013,373.138c-1.234-.436-2.489-.888-3.747-1.353V346.54a15.837,15.837,0,0,1,4.308,2.435l.73.529a7.509,7.509,0,1,0,8.664-12.266,35.739,35.739,0,0,0-13.7-6.3v-4.311a7.719,7.719,0,0,0-7.281-7.822,7.511,7.511,0,0,0-7.741,7.508v4.914c-.715.171-1.436.357-2.17.578a25.92,25.92,0,0,0-17.772,20.32c-3.063,16.242,6.557,23.762,19.942,29.78V415c-3.886-.427-6.657-1.567-11.024-4.4a7.73,7.73,0,0,0-10.5,1.785,7.511,7.511,0,0,0,2.022,10.621c7.623,4.986,12.917,6.605,19.5,7.073v4.71a7.719,7.719,0,0,0,7.281,7.822,7.511,7.511,0,0,0,7.741-7.508v-5.912c26.651-7.093,32.772-45.8,3.747-56.054Zm-23.949-18.232a11.551,11.551,0,0,1,5.18-7.764v17.9C409.847,363.007,406.9,361.056,408.064,354.906Zm20.2,58.158V387.8C440.161,392.953,437.31,407.747,428.266,413.064Z" transform="translate(-12 -12.387)" fill="#00b0ff"/>
        <path id="Path_35" data-name="Path 35" d="M420.32,289.027A91.68,91.68,0,1,0,512,380.708,91.784,91.784,0,0,0,420.32,289.027Zm0,168.339a76.658,76.658,0,1,1,76.658-76.658A76.745,76.745,0,0,1,420.32,457.366Z" transform="translate(-12 -12.387)" fill="#00b0ff"/>
        <path id="Path_36" data-name="Path 36" d="M312.629,457.467H24.779c-5.591,0-10.14-4.98-10.14-11.1V137.593H442.722V288.872c0,4.427,3.276,8.014,7.319,8.014s7.319-3.588,7.319-8.014V66.743c0-14.96-11.116-27.131-24.779-27.131H24.779C11.116,39.612,0,51.783,0,66.743V446.365C0,461.324,11.116,473.5,24.779,473.5h287.85c4.043,0,7.319-3.587,7.319-8.014s-3.276-8.015-7.319-8.015ZM14.639,66.743c0-6.122,4.549-11.1,10.14-11.1h407.8c5.591,0,10.14,4.981,10.14,11.1v54.821H14.639Z" transform="translate(0 -39.612)"/>
        <path id="Path_37" data-name="Path 37" d="M343.768,64.493A21.035,21.035,0,1,0,364.8,85.529,21.059,21.059,0,0,0,343.768,64.493Zm0,27.048a6.013,6.013,0,1,1,6.012-6.012A6.019,6.019,0,0,1,343.768,91.541Z" transform="translate(-8.241 -39.612)" fill="#1f92c5"/>
        <path id="Path_38" data-name="Path 38" d="M399.924,64.493a21.035,21.035,0,1,0,21.035,21.036A21.059,21.059,0,0,0,399.924,64.493Zm0,27.048a6.013,6.013,0,1,1,6.012-6.012A6.019,6.019,0,0,1,399.924,91.541Z" transform="translate(-9.675 -39.612)" fill="#1f92c5"/>
        <path id="Path_39" data-name="Path 39" d="M115.3,387.261h14.752a18.031,18.031,0,0,0,17.7-14.188l12.912-57.9h16.085c25.566,0,60.98,5.409,86.369,30.731v3.73a24.067,24.067,0,1,0,48.134,0l-.016-171.058a24.067,24.067,0,1,0-48.134,0v3.734c-25.391,25.331-60.81,30.742-86.377,30.744l-78.046.006a21.36,21.36,0,0,0-20.631,16H76.765a36.489,36.489,0,0,0,0,72.978h2.224a21.37,21.37,0,0,0,18.17,13.07v54.023A18.159,18.159,0,0,0,115.3,387.261ZM133.088,369.8a3.1,3.1,0,0,1-3.039,2.435H115.3a3.118,3.118,0,0,1-3.114-3.114V315.177l33.087,0Zm154.08-200.274a9.039,9.039,0,0,1,9.044,9.044l.016,171.058a9.044,9.044,0,1,1-18.088,0l-.016-171.059A9.039,9.039,0,0,1,287.168,169.529ZM176.727,228.075c34.656,0,64.143-8.9,86.377-25.872l.011,123.805c-22.233-16.969-51.716-25.859-86.367-25.859h-3.569l-.006-72.074ZM76.77,287.009h0a21.466,21.466,0,0,1,0-42.932h.578l0,42.932Zm15.6,6.732,0-57.162c0-.005,0-.011,0-.016s0-.011,0-.016v-2.152a6.321,6.321,0,0,1,6.314-6.315l59.47,0,.006,72.074-59.47.005c-6.21,0-6.268-6.314-6.315-6.414Z" transform="translate(0 -23.974)" fill="#f29305"/>
      </g>
    </g>
  </g>
</svg>
