<svg id="o_nas" xmlns="http://www.w3.org/2000/svg" width="770.88" height="553.909" viewBox="0 0 770.88 553.909">
  <rect id="Rectangle_1" data-name="Rectangle 1" width="704.468" height="412.358" transform="translate(0.275 0.365)" fill="#e6e6e6"/>
  <rect id="Rectangle_2" data-name="Rectangle 2" width="667.645" height="336.243" transform="translate(18.686 52.085)" fill="#fff"/>
  <rect id="Rectangle_3" data-name="Rectangle 3" width="704.468" height="27.354" fill="#1f92c5"/>
  <circle id="Ellipse_1" data-name="Ellipse 1" cx="5.07" cy="5.07" r="5.07" transform="translate(15.257 8.915)" fill="#fff"/>
  <circle id="Ellipse_2" data-name="Ellipse 2" cx="5.07" cy="5.07" r="5.07" transform="translate(34.501 8.915)" fill="#fff"/>
  <circle id="Ellipse_3" data-name="Ellipse 3" cx="5.07" cy="5.07" r="5.07" transform="translate(53.744 8.915)" fill="#fff"/>
  <rect id="Rectangle_4" data-name="Rectangle 4" width="155.981" height="266.467" transform="translate(73.844 80.208)" fill="#e6e6e6"/>
  <rect id="Rectangle_5" data-name="Rectangle 5" width="129.984" height="73.348" transform="translate(245.7 82.796)" fill="#f29305"/>
  <rect id="Rectangle_6" data-name="Rectangle 6" width="129.984" height="78.919" transform="translate(245.7 162.518)" fill="#e6e6e6"/>
  <rect id="Rectangle_7" data-name="Rectangle 7" width="129.984" height="73.348" transform="translate(245.7 252.138)" fill="#e6e6e6"/>
  <rect id="Rectangle_8" data-name="Rectangle 8" width="155.981" height="116.125" transform="translate(396.023 82.409)" fill="#e6e6e6"/>
  <rect id="Rectangle_9" data-name="Rectangle 9" width="155.981" height="116.125" transform="translate(396.023 211.567)" fill="#1f92c5"/>
  <path id="Path_1" data-name="Path 1" d="M936.787,353.085c-10.289-17.536-30.645-18.353-30.645-18.353s-19.836-2.559-32.56,24.148c-11.86,24.893-28.229,48.928-2.635,54.755l4.623-14.513,2.863,15.594a99.278,99.278,0,0,0,10.951.189c27.409-.893,53.511.261,52.671-9.659C940.937,392.058,946.687,369.958,936.787,353.085Z" transform="translate(-228.972 -165.443)" fill="#2f2e41"/>
  <path id="Path_2" data-name="Path 2" d="M839.217,446.712l-9,23-45,42s-27,20-15,26,23-22,23-22l48-29,10-33Z" transform="translate(-222.986 -177.453)" fill="#ffb8b8"/>
  <path id="Path_3" data-name="Path 3" d="M654.068,555.306l9,23h13l-11-27Z" transform="translate(-39.71 -53.279)" fill="#ffb8b8"/>
  <path id="Path_4" data-name="Path 4" d="M693.068,565.306l9,23h13l-11-27Z" transform="translate(-28.824 -53.279)" fill="#ffb8b8"/>
  <path id="Path_5" data-name="Path 5" d="M892.217,715.712l17-4-22-89,7.3-68.481.2-.019s12.5-48.5,2.5-61.5-60-8-60-8-19,19-18,62,0,80,7,97,27,62,27,62l16-2-17-74L849.5,565.385c2.163,25.778,6.517,74.659,8.718,78.327C861.217,648.712,892.217,715.712,892.217,715.712Z" transform="translate(-228.972 -199.685)" fill="#2f2e41"/>
  <path id="Path_6" data-name="Path 6" d="M943.217,467.712l7,25,31,56s27,24,16,27-28-22-28-22l-35-49-9-36Z" transform="translate(-228.972 -180.717)" fill="#ffb8b8"/>
  <circle id="Ellipse_4" data-name="Ellipse 4" cx="25" cy="25" r="25" transform="translate(653.244 181.153)" fill="#ffb8b8"/>
  <path id="Path_7" data-name="Path 7" d="M894.217,384.712l-6,19-10,22,37-15s-2-16,0-20Z" transform="translate(-228.972 -168.831)" fill="#ffb8b8"/>
  <path id="Path_8" data-name="Path 8" d="M937.217,424.712l-23-19-26,11,1.019-16.226-27.741,8.86-4.278,1.366-6,31s-4,3-8,20a146.505,146.505,0,0,1-10,29s43-17,64,6c0,0,3-2,2-5s9-18,9-18,0,3,4-3,7-7,7-7Z" transform="translate(-228.972 -172.899)" fill="#1f92c5"/>
  <path id="Path_9" data-name="Path 9" d="M863.217,413.712l-4.368-3.521s-3.632-1.479-6.632,3.521-18,36-18,36l18,9Z" transform="translate(-223.862 -171.552)" fill="#1f92c5"/>
  <path id="Path_10" data-name="Path 10" d="M923.217,423.712l14,1s8,4,8,10,2,38,2,38l-22,7-9-28Z" transform="translate(-228.972 -173.211)" fill="#1f92c5"/>
  <path id="Path_11" data-name="Path 11" d="M860.327,721.212l-17,7s-20,1-17,11,33,3,33,3,27,1,27-6-4-15-8-15Z" transform="translate(-239.558 -199.685)" fill="#f29305"/>
  <path id="Path_12" data-name="Path 12" d="M898.327,730.212l-17,7s-20,1-17,11,33,3,33,3,27,1,27-6-4-15-8-15Z" transform="translate(-228.972 -199.685)" fill="#f29305"/>
  <path id="Path_13" data-name="Path 13" d="M732.09,204.989l-20.111-10.626-27.771,4.347-5.746,25.6,14.3-.554,4-9.4v9.25l6.6-.256,3.83-14.972,2.394,15.937,23.463-.483Z" transform="translate(-28.824 -17.939)" fill="#2f2e41"/>
  <path id="Path_14" data-name="Path 14" d="M797.728,229.953a135.02,135.02,0,1,0,7.655,199.4L971,569.1a12.442,12.442,0,0,0,16.048-19.018L821.431,410.337a135.027,135.027,0,0,0-23.7-180.384ZM787.052,396.88a101.158,101.158,0,1,1-12.077-142.548A101.158,101.158,0,0,1,787.052,396.88Z" transform="translate(-228.972 -146.406)" fill="#3f3d56"/>
  <path id="Path_15" data-name="Path 15" d="M644.5,408.957a101.163,101.163,0,0,1-17.166-135.989q-2.9,2.922-5.609,6.12A101.158,101.158,0,1,0,776.354,409.559q2.7-3.2,5.089-6.559A101.163,101.163,0,0,1,644.5,408.957Z" transform="translate(-218.755 -161.919)" opacity="0.3"/>
</svg>
