<svg xmlns="http://www.w3.org/2000/svg" width="920.297" height="567.136" viewBox="0 0 920.297 567.136">
  <g id="undraw_pitching_36ol_1_" data-name="undraw_pitching_36ol (1)" transform="translate(0 0)">
    <path id="Path_33" data-name="Path 33" d="M1050.24,538.7H409.649a9.922,9.922,0,0,1-9.911-9.911V176.342a9.922,9.922,0,0,1,9.911-9.911h640.589a9.922,9.922,0,0,1,9.911,9.911V528.791a9.922,9.922,0,0,1-9.909,9.91Z" transform="translate(-139.852 -166.432)" fill="#e6e6e6"/>
    <path id="Path_34" data-name="Path 34" d="M1036.72,525.187H423.163a9.922,9.922,0,0,1-9.911-9.911V189.857a9.922,9.922,0,0,1,9.911-9.911h613.56a9.922,9.922,0,0,1,9.911,9.911V515.276A9.922,9.922,0,0,1,1036.72,525.187Z" transform="translate(-139.852 -166.432)" fill="#fff"/>
    <path id="Path_35" data-name="Path 35" d="M594.852,380.736H479.42a4.815,4.815,0,0,1-4.81-4.81V255.709a4.815,4.815,0,0,1,4.81-4.81H594.852a4.815,4.815,0,0,1,4.81,4.81V375.926a4.815,4.815,0,0,1-4.81,4.81ZM479.42,252.823a2.889,2.889,0,0,0-2.886,2.886V375.926a2.889,2.889,0,0,0,2.886,2.886H594.852a2.889,2.889,0,0,0,2.886-2.886V255.709a2.889,2.889,0,0,0-2.886-2.886Z" transform="translate(-139.852 -166.432)" fill="#3f3d56"/>
    <path id="Path_36" data-name="Path 36" d="M787.659,380.736H672.228a4.815,4.815,0,0,1-4.81-4.81V255.709a4.815,4.815,0,0,1,4.81-4.81H787.659a4.815,4.815,0,0,1,4.81,4.81V375.926a4.815,4.815,0,0,1-4.81,4.81ZM672.228,252.823a2.889,2.889,0,0,0-2.886,2.886V375.926a2.889,2.889,0,0,0,2.886,2.886H787.659a2.889,2.889,0,0,0,2.886-2.886V255.709a2.889,2.889,0,0,0-2.886-2.886Z" transform="translate(-139.852 -166.432)" fill="#3f3d56"/>
    <path id="Path_37" data-name="Path 37" d="M980.466,380.736H865.035a4.815,4.815,0,0,1-4.81-4.81V255.709a4.815,4.815,0,0,1,4.81-4.81H980.466a4.815,4.815,0,0,1,4.81,4.81V375.926a4.815,4.815,0,0,1-4.81,4.81ZM865.035,252.823a2.889,2.889,0,0,0-2.886,2.886V375.926a2.889,2.889,0,0,0,2.886,2.886H980.466a2.889,2.889,0,0,0,2.886-2.886V255.709a2.889,2.889,0,0,0-2.886-2.886Z" transform="translate(-139.852 -166.432)" fill="#3f3d56"/>
    <path id="Path_38" data-name="Path 38" d="M514.846,454.234a3.265,3.265,0,0,0,0-6.531h-29.3a3.265,3.265,0,0,0,0,6.531Z" transform="translate(-139.852 -166.432)" fill="#e6e6e6"/>
    <path id="Path_39" data-name="Path 39" d="M588.725,434.995a3.265,3.265,0,0,0,0-6.531H485.547a3.265,3.265,0,1,0,0,6.531Z" transform="translate(-139.852 -166.432)" fill="#1f92c5"/>
    <path id="Path_40" data-name="Path 40" d="M707.653,454.234a3.265,3.265,0,0,0,0-6.531h-29.3a3.265,3.265,0,0,0,0,6.531Z" transform="translate(-139.852 -166.432)" fill="#e6e6e6"/>
    <path id="Path_41" data-name="Path 41" d="M781.533,434.995a3.265,3.265,0,0,0,0-6.531H678.354a3.265,3.265,0,1,0,0,6.531Z" transform="translate(-139.852 -166.432)" fill="#f29305"/>
    <path id="Path_42" data-name="Path 42" d="M900.461,454.234a3.265,3.265,0,1,0,0-6.531h-29.3a3.265,3.265,0,0,0,0,6.531Z" transform="translate(-139.852 -166.432)" fill="#f29305"/>
    <path id="Path_43" data-name="Path 43" d="M974.34,434.995a3.265,3.265,0,0,0,0-6.531H871.161a3.265,3.265,0,1,0,0,6.531Z" transform="translate(-139.852 -166.432)" fill="#e6e6e6"/>
    <path id="Path_44" data-name="Path 44" d="M588.725,416.075a3.265,3.265,0,1,0,0-6.531H485.547a3.265,3.265,0,0,0,0,6.531Z" transform="translate(-139.852 -166.432)" fill="#f29305"/>
    <path id="Path_45" data-name="Path 45" d="M781.533,416.075a3.265,3.265,0,0,0,0-6.531H678.354a3.265,3.265,0,0,0,0,6.531Z" transform="translate(-139.852 -166.432)" fill="#1f92c5"/>
    <path id="Path_46" data-name="Path 46" d="M974.34,416.075a3.265,3.265,0,0,0,0-6.531H871.161a3.265,3.265,0,0,0,0,6.531Z" transform="translate(-139.852 -166.432)" fill="#1f92c5"/>
    <path id="Path_47" data-name="Path 47" d="M570.256,357.437a3.265,3.265,0,0,0,0-6.531h-66.24a3.265,3.265,0,1,0,0,6.531Z" transform="translate(-139.852 -166.432)" fill="#e6e6e6"/>
    <path id="Path_48" data-name="Path 48" d="M570.256,338.2a3.265,3.265,0,0,0,0-6.531h-66.24a3.265,3.265,0,1,0,0,6.531Z" transform="translate(-139.852 -166.432)" fill="#e6e6e6"/>
    <circle id="Ellipse_9" data-name="Ellipse 9" cx="20.722" cy="20.722" r="20.722" transform="translate(376.562 107.766)" fill="#1f92c5"/>
    <path id="Path_49" data-name="Path 49" d="M763.063,357.437a3.265,3.265,0,0,0,0-6.531H696.824a3.265,3.265,0,1,0,0,6.531Z" transform="translate(-139.852 -166.432)" fill="#e6e6e6"/>
    <path id="Path_50" data-name="Path 50" d="M763.063,338.2a3.265,3.265,0,0,0,0-6.531H696.824a3.265,3.265,0,1,0,0,6.531Z" transform="translate(-139.852 -166.432)" fill="#e6e6e6"/>
    <circle id="Ellipse_10" data-name="Ellipse 10" cx="20.722" cy="20.722" r="20.722" transform="translate(569.37 107.766)" fill="#1f92c5"/>
    <path id="Path_51" data-name="Path 51" d="M955.87,357.437a3.265,3.265,0,0,0,0-6.531H889.631a3.265,3.265,0,1,0,0,6.531Z" transform="translate(-139.852 -166.432)" fill="#e6e6e6"/>
    <path id="Path_52" data-name="Path 52" d="M955.87,338.2a3.265,3.265,0,0,0,0-6.531H889.631a3.265,3.265,0,1,0,0,6.531Z" transform="translate(-139.852 -166.432)" fill="#e6e6e6"/>
    <circle id="Ellipse_11" data-name="Ellipse 11" cx="20.722" cy="20.722" r="20.722" transform="translate(762.177 107.766)" fill="#1f92c5"/>
    <path id="Path_53" data-name="Path 53" d="M153.95,481.518l11.1,6.055-7.065,23.213-11.1,1.009-6.056-13.12Z" fill="#ffb9b9"/>
    <path id="Path_54" data-name="Path 54" d="M119.636,527.943v11.1l-17.157-1.009.239-9.143Z" fill="#ffb9b9"/>
    <path id="Path_55" data-name="Path 55" d="M157.987,348.3l-6.055,75.694L132.756,535.007l-30.277-4.037,10.092-87.8-4.037-80.739Z" fill="#2f2e41"/>
    <path id="Path_56" data-name="Path 56" d="M217.1,458.211l72.666,1.009,8.074,55.508-49.453,23.213-12.111,44.407,61.564,65.6-24.222,30.277S239.3,631.8,214.071,605.56s-13.12-105.971-13.12-105.971Z" transform="translate(-139.852 -166.432)" fill="#2f2e41"/>
    <circle id="Ellipse_12" data-name="Ellipse 12" cx="22.203" cy="22.203" r="22.203" transform="translate(98.442 104.06)" fill="#ffb9b9"/>
    <path id="Path_57" data-name="Path 57" d="M268.571,307.834v22.2l-15.139,24.222s-23.213-17.157-18.166-21.194,6.055-35.324,6.055-35.324Z" transform="translate(-139.852 -166.432)" fill="#ffb9b9"/>
    <path id="Path_58" data-name="Path 58" d="M128.719,159.569l15.139,18.166L137.8,303.89l-47.434-1.009L82.294,192.874l10.092-28.259,6.923-9.419,12.253,18.5Z" fill="#fff"/>
    <path id="Path_59" data-name="Path 59" d="M292.792,391.6l11.1,42.388-11.1,42.388L310.958,500.6l16.148-76.7S315,361.324,313.986,354.259s-3.028-8.074-3.028-8.074l-8.074,1.009Z" transform="translate(-139.852 -166.432)" fill="#2f2e41"/>
    <path id="Path_60" data-name="Path 60" d="M72.2,241.317l-7.065,13.121-2.019,22.2,4.037,25.231L53.026,325.085,38.9,261.5l15.138-81.749h6.056Z" fill="#2f2e41"/>
    <path id="Path_61" data-name="Path 61" d="M297.839,646.94s14.129,4.037,19.176,5.046-3.028,20.185-3.028,20.185-5.046,26.24-6.055,31.287-8.074,22.2-17.157,24.222-3.028-35.324-3.028-35.324-4.037-12.111-4.037-16.148,6.055-2.018,6.055-2.018C305.913,672.171,297.839,646.94,297.839,646.94Z" transform="translate(-139.852 -166.432)" fill="#2f2e41"/>
    <path id="Path_62" data-name="Path 62" d="M264.534,724.652c-1.009,6.055,1.009,6.055-15.139,8.074s-12.111-11.1-12.111-11.1a84.8,84.8,0,0,1,4.037-18.166c3.028-8.074,19.176,2.019,19.176,2.019S265.543,718.6,264.534,724.652Z" transform="translate(-139.852 -166.432)" fill="#2f2e41"/>
    <path id="Path_63" data-name="Path 63" d="M241.295,298.446l-.526,8.976s-6.512-14.727-7.522-29.865,16.148-18.166,26.24-19.176,27.249,6.055,27.249,14.129-18.166,6.055-25.231,4.037-10.092,15.139-10.092,15.139l-4.037,1.009Z" transform="translate(-139.852 -166.432)" fill="#2f2e41"/>
    <path id="Path_64" data-name="Path 64" d="M134.676,166.716l-5.957-7.147L111.562,173.7l17.157,12.111Z" fill="#fff"/>
    <path id="Path_65" data-name="Path 65" d="M92.386,164.615l7.065-9.083L111.562,173.7,96.423,184.8Z" fill="#fff"/>
    <path id="Path_66" data-name="Path 66" d="M295.82,405.731l-4.037,38.351,8.074,23.213,5.046,22.2s0,21.194-20.185,22.2-37.342-63.582-37.342-63.582-3.028,14.129-5.046,22.2S206,510.693,206,510.693s-8.074-1.009-15.139-17.157,14.129-31.287,14.129-31.287l6.055-21.194-2.018-26.24L194.9,346.185l41.884-21.7-4.542,58.032,15.139,45.416,22.708-100.42,7.569,5.551,32.3,13.12Z" transform="translate(-139.852 -166.432)" fill="#2f2e41"/>
    <path id="Path_67" data-name="Path 67" d="M257.738,567.136H0V565.03H258.12Z" fill="#3f3d56"/>
  </g>
</svg>
