<svg xmlns="http://www.w3.org/2000/svg" width="150" height="150" viewBox="0 0 150 150">
  <path id="subskrypcja" d="M149.139,153.1l-18.86,48.5c-2.987,7.68-8.468,12.4-14.4,12.4H11.725c-4.824,0-7.829-7.849-5.4-14.1l18.86-48.5c2.987-7.68,8.469-12.4,14.4-12.4H143.741C148.564,139,151.57,146.849,149.139,153.1ZM39.583,126.5H125V107.75C125,97.395,119.4,89,112.5,89H70.833L54.167,64H12.5C5.6,64,0,72.395,0,82.75V191.362L17.989,145.1C22.452,133.629,30.726,126.5,39.583,126.5Z" transform="translate(0 -64)" fill="#1f92c5"/>
</svg>
