<svg xmlns="http://www.w3.org/2000/svg" xmlns:xlink="http://www.w3.org/1999/xlink" width="130" height="130" viewBox="0 0 130 130">
  <defs>
    <radialGradient id="radial-gradient" cx="0.5" cy="1" r="0.929" gradientTransform="translate(-0.846 -3.63) scale(1.15 1.15)" gradientUnits="objectBoundingBox">
      <stop offset="0" stop-color="#ff7854"/>
      <stop offset="1" stop-color="#fd267d"/>
    </radialGradient>
  </defs>
  <path id="tinder" d="M38.953,52.487a.45.45,0,0,1-.457-.11c-5.053-5.82-6.322-15.825-6.631-19.668a1.216,1.216,0,0,0-1.786-.784C14.477,39.548,0,57.582,0,74.994,0,104.906,23.884,130,65,130c38.522,0,65-25.863,65-55C130,36.869,98.676,11.535,70.776.083a1.13,1.13,0,0,0-1.02.085.827.827,0,0,0-.4.82c3.593,20.548-1.371,42.9-30.4,51.5Z" transform="translate(0 0)" fill-rule="evenodd" fill="url(#radial-gradient)"/>
</svg>
